<mxfile host="app.diagrams.net" modified="2021-04-08T15:41:23.044Z" agent="5.0 (Windows NT 10.0; Win64; x64) AppleWebKit/537.36 (KHTML, like Gecko) Chrome/89.0.4389.114 Safari/537.36" etag="1rlLS-eEUp-9pBfGbdAH" version="14.5.8" type="github" pages="3">
  <diagram id="HKG0bnk_BRrGaYvMKZTP" name="Page-1">
    <mxGraphModel dx="1707" dy="561" grid="1" gridSize="10" guides="1" tooltips="1" connect="1" arrows="1" fold="1" page="1" pageScale="1" pageWidth="827" pageHeight="1169" math="0" shadow="0">
      <root>
        <mxCell id="0" />
        <mxCell id="1" parent="0" />
        <mxCell id="s8_o_wxNfZ0kV5NLu6gk-1" value="" style="rounded=0;whiteSpace=wrap;html=1;fillColor=#C4C4C4;" vertex="1" parent="1">
          <mxGeometry x="448" y="372.5" width="30" height="405.5" as="geometry" />
        </mxCell>
        <mxCell id="s8_o_wxNfZ0kV5NLu6gk-2" value="" style="rounded=0;whiteSpace=wrap;html=1;fillColor=#C4C4C4;" vertex="1" parent="1">
          <mxGeometry x="304" y="373.75" width="30" height="405.5" as="geometry" />
        </mxCell>
        <mxCell id="s8_o_wxNfZ0kV5NLu6gk-3" value="" style="rounded=0;whiteSpace=wrap;html=1;fillColor=#C4C4C4;" vertex="1" parent="1">
          <mxGeometry x="108" y="373.75" width="30" height="405.5" as="geometry" />
        </mxCell>
        <mxCell id="s8_o_wxNfZ0kV5NLu6gk-4" value="" style="rounded=0;whiteSpace=wrap;html=1;fillColor=#C4C4C4;" vertex="1" parent="1">
          <mxGeometry x="18" y="373.75" width="30" height="405.5" as="geometry" />
        </mxCell>
        <mxCell id="s8_o_wxNfZ0kV5NLu6gk-5" value="MUL" style="rounded=0;whiteSpace=wrap;html=1;" vertex="1" parent="1">
          <mxGeometry x="258" y="488" width="40" height="30" as="geometry" />
        </mxCell>
        <mxCell id="s8_o_wxNfZ0kV5NLu6gk-6" value="MUL" style="rounded=0;whiteSpace=wrap;html=1;" vertex="1" parent="1">
          <mxGeometry x="258" y="518" width="40" height="30" as="geometry" />
        </mxCell>
        <mxCell id="s8_o_wxNfZ0kV5NLu6gk-7" value="MUL" style="rounded=0;whiteSpace=wrap;html=1;" vertex="1" parent="1">
          <mxGeometry x="258" y="548" width="40" height="30" as="geometry" />
        </mxCell>
        <mxCell id="s8_o_wxNfZ0kV5NLu6gk-8" value="MUL" style="rounded=0;whiteSpace=wrap;html=1;" vertex="1" parent="1">
          <mxGeometry x="258" y="578" width="40" height="30" as="geometry" />
        </mxCell>
        <mxCell id="s8_o_wxNfZ0kV5NLu6gk-9" value="MUL" style="rounded=0;whiteSpace=wrap;html=1;" vertex="1" parent="1">
          <mxGeometry x="258" y="608" width="40" height="30" as="geometry" />
        </mxCell>
        <mxCell id="s8_o_wxNfZ0kV5NLu6gk-10" value="MUL" style="rounded=0;whiteSpace=wrap;html=1;" vertex="1" parent="1">
          <mxGeometry x="258" y="638" width="40" height="30" as="geometry" />
        </mxCell>
        <mxCell id="s8_o_wxNfZ0kV5NLu6gk-11" value="MUL" style="rounded=0;whiteSpace=wrap;html=1;" vertex="1" parent="1">
          <mxGeometry x="258" y="668" width="40" height="30" as="geometry" />
        </mxCell>
        <mxCell id="s8_o_wxNfZ0kV5NLu6gk-12" style="edgeStyle=orthogonalEdgeStyle;rounded=0;orthogonalLoop=1;jettySize=auto;html=1;exitX=1;exitY=0.5;exitDx=0;exitDy=0;entryX=0;entryY=0.75;entryDx=0;entryDy=0;" edge="1" parent="1" source="s8_o_wxNfZ0kV5NLu6gk-16" target="s8_o_wxNfZ0kV5NLu6gk-127">
          <mxGeometry relative="1" as="geometry">
            <Array as="points">
              <mxPoint x="338" y="713" />
              <mxPoint x="338" y="517" />
            </Array>
          </mxGeometry>
        </mxCell>
        <mxCell id="s8_o_wxNfZ0kV5NLu6gk-13" style="edgeStyle=orthogonalEdgeStyle;rounded=0;orthogonalLoop=1;jettySize=auto;html=1;exitX=1;exitY=0.5;exitDx=0;exitDy=0;entryX=0.75;entryY=0;entryDx=0;entryDy=0;" edge="1" parent="1" source="s8_o_wxNfZ0kV5NLu6gk-16" target="s8_o_wxNfZ0kV5NLu6gk-129">
          <mxGeometry relative="1" as="geometry">
            <Array as="points">
              <mxPoint x="338" y="713" />
              <mxPoint x="338" y="559" />
            </Array>
          </mxGeometry>
        </mxCell>
        <mxCell id="s8_o_wxNfZ0kV5NLu6gk-14" style="edgeStyle=orthogonalEdgeStyle;rounded=0;orthogonalLoop=1;jettySize=auto;html=1;exitX=1;exitY=0.5;exitDx=0;exitDy=0;entryX=0;entryY=0.75;entryDx=0;entryDy=0;" edge="1" parent="1" source="s8_o_wxNfZ0kV5NLu6gk-16" target="s8_o_wxNfZ0kV5NLu6gk-137">
          <mxGeometry relative="1" as="geometry">
            <Array as="points">
              <mxPoint x="338" y="713" />
              <mxPoint x="338" y="639" />
            </Array>
          </mxGeometry>
        </mxCell>
        <mxCell id="s8_o_wxNfZ0kV5NLu6gk-15" style="edgeStyle=orthogonalEdgeStyle;rounded=0;orthogonalLoop=1;jettySize=auto;html=1;exitX=1;exitY=0.5;exitDx=0;exitDy=0;entryX=0;entryY=0.75;entryDx=0;entryDy=0;" edge="1" parent="1" source="s8_o_wxNfZ0kV5NLu6gk-16" target="s8_o_wxNfZ0kV5NLu6gk-134">
          <mxGeometry relative="1" as="geometry">
            <Array as="points">
              <mxPoint x="338" y="713" />
              <mxPoint x="338" y="598" />
            </Array>
          </mxGeometry>
        </mxCell>
        <mxCell id="s8_o_wxNfZ0kV5NLu6gk-16" value="MUL" style="rounded=0;whiteSpace=wrap;html=1;" vertex="1" parent="1">
          <mxGeometry x="258" y="698" width="40" height="30" as="geometry" />
        </mxCell>
        <mxCell id="s8_o_wxNfZ0kV5NLu6gk-17" value="MUL" style="rounded=0;whiteSpace=wrap;html=1;" vertex="1" parent="1">
          <mxGeometry x="248" y="478" width="40" height="30" as="geometry" />
        </mxCell>
        <mxCell id="s8_o_wxNfZ0kV5NLu6gk-18" value="MUL" style="rounded=0;whiteSpace=wrap;html=1;" vertex="1" parent="1">
          <mxGeometry x="248" y="508" width="40" height="30" as="geometry" />
        </mxCell>
        <mxCell id="s8_o_wxNfZ0kV5NLu6gk-19" value="MUL" style="rounded=0;whiteSpace=wrap;html=1;" vertex="1" parent="1">
          <mxGeometry x="248" y="538" width="40" height="30" as="geometry" />
        </mxCell>
        <mxCell id="s8_o_wxNfZ0kV5NLu6gk-20" value="MUL" style="rounded=0;whiteSpace=wrap;html=1;" vertex="1" parent="1">
          <mxGeometry x="248" y="568" width="40" height="30" as="geometry" />
        </mxCell>
        <mxCell id="s8_o_wxNfZ0kV5NLu6gk-21" value="MUL" style="rounded=0;whiteSpace=wrap;html=1;" vertex="1" parent="1">
          <mxGeometry x="248" y="598" width="40" height="30" as="geometry" />
        </mxCell>
        <mxCell id="s8_o_wxNfZ0kV5NLu6gk-22" value="MUL" style="rounded=0;whiteSpace=wrap;html=1;" vertex="1" parent="1">
          <mxGeometry x="248" y="628" width="40" height="30" as="geometry" />
        </mxCell>
        <mxCell id="s8_o_wxNfZ0kV5NLu6gk-23" value="MUL" style="rounded=0;whiteSpace=wrap;html=1;" vertex="1" parent="1">
          <mxGeometry x="248" y="658" width="40" height="30" as="geometry" />
        </mxCell>
        <mxCell id="s8_o_wxNfZ0kV5NLu6gk-24" value="MUL" style="rounded=0;whiteSpace=wrap;html=1;" vertex="1" parent="1">
          <mxGeometry x="248" y="688" width="40" height="30" as="geometry" />
        </mxCell>
        <mxCell id="s8_o_wxNfZ0kV5NLu6gk-25" value="MUL" style="rounded=0;whiteSpace=wrap;html=1;" vertex="1" parent="1">
          <mxGeometry x="238" y="468" width="40" height="30" as="geometry" />
        </mxCell>
        <mxCell id="s8_o_wxNfZ0kV5NLu6gk-26" value="MUL" style="rounded=0;whiteSpace=wrap;html=1;" vertex="1" parent="1">
          <mxGeometry x="238" y="498" width="40" height="30" as="geometry" />
        </mxCell>
        <mxCell id="s8_o_wxNfZ0kV5NLu6gk-27" value="MUL" style="rounded=0;whiteSpace=wrap;html=1;" vertex="1" parent="1">
          <mxGeometry x="238" y="528" width="40" height="30" as="geometry" />
        </mxCell>
        <mxCell id="s8_o_wxNfZ0kV5NLu6gk-28" value="MUL" style="rounded=0;whiteSpace=wrap;html=1;" vertex="1" parent="1">
          <mxGeometry x="238" y="558" width="40" height="30" as="geometry" />
        </mxCell>
        <mxCell id="s8_o_wxNfZ0kV5NLu6gk-29" value="MUL" style="rounded=0;whiteSpace=wrap;html=1;" vertex="1" parent="1">
          <mxGeometry x="238" y="588" width="40" height="30" as="geometry" />
        </mxCell>
        <mxCell id="s8_o_wxNfZ0kV5NLu6gk-30" value="MUL" style="rounded=0;whiteSpace=wrap;html=1;" vertex="1" parent="1">
          <mxGeometry x="238" y="618" width="40" height="30" as="geometry" />
        </mxCell>
        <mxCell id="s8_o_wxNfZ0kV5NLu6gk-31" value="MUL" style="rounded=0;whiteSpace=wrap;html=1;" vertex="1" parent="1">
          <mxGeometry x="238" y="648" width="40" height="30" as="geometry" />
        </mxCell>
        <mxCell id="s8_o_wxNfZ0kV5NLu6gk-32" value="MUL" style="rounded=0;whiteSpace=wrap;html=1;" vertex="1" parent="1">
          <mxGeometry x="238" y="678" width="40" height="30" as="geometry" />
        </mxCell>
        <mxCell id="s8_o_wxNfZ0kV5NLu6gk-33" style="edgeStyle=orthogonalEdgeStyle;rounded=0;orthogonalLoop=1;jettySize=auto;html=1;exitX=1;exitY=0.5;exitDx=0;exitDy=0;entryX=0.019;entryY=0.141;entryDx=0;entryDy=0;entryPerimeter=0;" edge="1" parent="1" source="s8_o_wxNfZ0kV5NLu6gk-38" target="s8_o_wxNfZ0kV5NLu6gk-63">
          <mxGeometry relative="1" as="geometry">
            <Array as="points">
              <mxPoint x="-142" y="577" />
              <mxPoint x="-142" y="485" />
            </Array>
          </mxGeometry>
        </mxCell>
        <mxCell id="s8_o_wxNfZ0kV5NLu6gk-34" style="edgeStyle=orthogonalEdgeStyle;rounded=0;orthogonalLoop=1;jettySize=auto;html=1;exitX=1;exitY=0.5;exitDx=0;exitDy=0;entryX=0;entryY=0;entryDx=0;entryDy=0;" edge="1" parent="1" source="s8_o_wxNfZ0kV5NLu6gk-38" target="s8_o_wxNfZ0kV5NLu6gk-66">
          <mxGeometry relative="1" as="geometry">
            <Array as="points">
              <mxPoint x="-142" y="577" />
              <mxPoint x="-142" y="548" />
            </Array>
          </mxGeometry>
        </mxCell>
        <mxCell id="s8_o_wxNfZ0kV5NLu6gk-35" style="edgeStyle=orthogonalEdgeStyle;rounded=0;orthogonalLoop=1;jettySize=auto;html=1;exitX=1;exitY=0.5;exitDx=0;exitDy=0;entryX=0;entryY=0.25;entryDx=0;entryDy=0;" edge="1" parent="1" source="s8_o_wxNfZ0kV5NLu6gk-38" target="s8_o_wxNfZ0kV5NLu6gk-147">
          <mxGeometry relative="1" as="geometry">
            <Array as="points">
              <mxPoint x="-142" y="577" />
              <mxPoint x="-142" y="421" />
            </Array>
          </mxGeometry>
        </mxCell>
        <mxCell id="s8_o_wxNfZ0kV5NLu6gk-36" style="edgeStyle=orthogonalEdgeStyle;rounded=0;orthogonalLoop=1;jettySize=auto;html=1;exitX=0.5;exitY=0;exitDx=0;exitDy=0;entryX=0.5;entryY=1;entryDx=0;entryDy=0;" edge="1" parent="1" source="s8_o_wxNfZ0kV5NLu6gk-38" target="s8_o_wxNfZ0kV5NLu6gk-58">
          <mxGeometry relative="1" as="geometry" />
        </mxCell>
        <mxCell id="s8_o_wxNfZ0kV5NLu6gk-37" style="edgeStyle=orthogonalEdgeStyle;rounded=0;orthogonalLoop=1;jettySize=auto;html=1;exitX=0;exitY=0.5;exitDx=0;exitDy=0;entryX=0;entryY=0.5;entryDx=0;entryDy=0;" edge="1" parent="1" source="s8_o_wxNfZ0kV5NLu6gk-38" target="s8_o_wxNfZ0kV5NLu6gk-139">
          <mxGeometry relative="1" as="geometry">
            <Array as="points">
              <mxPoint x="-272" y="577" />
              <mxPoint x="-272" y="378" />
              <mxPoint x="436" y="378" />
            </Array>
          </mxGeometry>
        </mxCell>
        <mxCell id="s8_o_wxNfZ0kV5NLu6gk-38" value="COUNTER(p)" style="rounded=0;whiteSpace=wrap;html=1;" vertex="1" parent="1">
          <mxGeometry x="-255" y="566.5" width="80" height="20" as="geometry" />
        </mxCell>
        <mxCell id="s8_o_wxNfZ0kV5NLu6gk-39" style="edgeStyle=orthogonalEdgeStyle;rounded=0;orthogonalLoop=1;jettySize=auto;html=1;exitX=0.5;exitY=0;exitDx=0;exitDy=0;entryX=0.5;entryY=1;entryDx=0;entryDy=0;" edge="1" parent="1" source="s8_o_wxNfZ0kV5NLu6gk-47" target="s8_o_wxNfZ0kV5NLu6gk-51">
          <mxGeometry relative="1" as="geometry" />
        </mxCell>
        <mxCell id="s8_o_wxNfZ0kV5NLu6gk-40" style="edgeStyle=orthogonalEdgeStyle;rounded=0;orthogonalLoop=1;jettySize=auto;html=1;exitX=1;exitY=0.5;exitDx=0;exitDy=0;entryX=0;entryY=0.75;entryDx=0;entryDy=0;" edge="1" parent="1" source="s8_o_wxNfZ0kV5NLu6gk-47" target="s8_o_wxNfZ0kV5NLu6gk-66">
          <mxGeometry relative="1" as="geometry">
            <Array as="points">
              <mxPoint x="-152" y="698" />
              <mxPoint x="-152" y="586" />
            </Array>
          </mxGeometry>
        </mxCell>
        <mxCell id="s8_o_wxNfZ0kV5NLu6gk-41" style="edgeStyle=orthogonalEdgeStyle;rounded=0;orthogonalLoop=1;jettySize=auto;html=1;exitX=1;exitY=0.5;exitDx=0;exitDy=0;" edge="1" parent="1" source="s8_o_wxNfZ0kV5NLu6gk-47" target="s8_o_wxNfZ0kV5NLu6gk-137">
          <mxGeometry relative="1" as="geometry">
            <Array as="points">
              <mxPoint x="-152" y="698" />
              <mxPoint x="-152" y="758" />
              <mxPoint x="380" y="758" />
            </Array>
          </mxGeometry>
        </mxCell>
        <mxCell id="s8_o_wxNfZ0kV5NLu6gk-42" style="edgeStyle=orthogonalEdgeStyle;rounded=0;orthogonalLoop=1;jettySize=auto;html=1;exitX=1;exitY=0.5;exitDx=0;exitDy=0;entryX=0.5;entryY=1;entryDx=0;entryDy=0;" edge="1" parent="1" source="s8_o_wxNfZ0kV5NLu6gk-47" target="s8_o_wxNfZ0kV5NLu6gk-134">
          <mxGeometry relative="1" as="geometry">
            <Array as="points">
              <mxPoint x="-152" y="698" />
              <mxPoint x="-152" y="758" />
              <mxPoint x="388" y="758" />
              <mxPoint x="388" y="608" />
              <mxPoint x="379" y="608" />
            </Array>
          </mxGeometry>
        </mxCell>
        <mxCell id="s8_o_wxNfZ0kV5NLu6gk-43" style="edgeStyle=orthogonalEdgeStyle;rounded=0;orthogonalLoop=1;jettySize=auto;html=1;exitX=1;exitY=0.5;exitDx=0;exitDy=0;" edge="1" parent="1" source="s8_o_wxNfZ0kV5NLu6gk-47" target="s8_o_wxNfZ0kV5NLu6gk-131">
          <mxGeometry relative="1" as="geometry">
            <Array as="points">
              <mxPoint x="-152" y="698" />
              <mxPoint x="-152" y="758" />
              <mxPoint x="398" y="758" />
              <mxPoint x="398" y="568" />
              <mxPoint x="379" y="568" />
            </Array>
          </mxGeometry>
        </mxCell>
        <mxCell id="s8_o_wxNfZ0kV5NLu6gk-44" style="edgeStyle=orthogonalEdgeStyle;rounded=0;orthogonalLoop=1;jettySize=auto;html=1;exitX=1;exitY=0.5;exitDx=0;exitDy=0;entryX=0.5;entryY=1;entryDx=0;entryDy=0;" edge="1" parent="1" source="s8_o_wxNfZ0kV5NLu6gk-47" target="s8_o_wxNfZ0kV5NLu6gk-127">
          <mxGeometry relative="1" as="geometry">
            <Array as="points">
              <mxPoint x="-152" y="698" />
              <mxPoint x="-152" y="758" />
              <mxPoint x="408" y="758" />
              <mxPoint x="408" y="528" />
              <mxPoint x="378" y="528" />
            </Array>
          </mxGeometry>
        </mxCell>
        <mxCell id="s8_o_wxNfZ0kV5NLu6gk-45" style="edgeStyle=orthogonalEdgeStyle;rounded=0;orthogonalLoop=1;jettySize=auto;html=1;exitX=1;exitY=0.5;exitDx=0;exitDy=0;entryX=0;entryY=0.75;entryDx=0;entryDy=0;" edge="1" parent="1" source="s8_o_wxNfZ0kV5NLu6gk-47" target="s8_o_wxNfZ0kV5NLu6gk-147">
          <mxGeometry relative="1" as="geometry">
            <Array as="points">
              <mxPoint x="-152" y="698" />
              <mxPoint x="-152" y="446" />
            </Array>
          </mxGeometry>
        </mxCell>
        <mxCell id="s8_o_wxNfZ0kV5NLu6gk-46" style="edgeStyle=orthogonalEdgeStyle;rounded=0;orthogonalLoop=1;jettySize=auto;html=1;exitX=1;exitY=0.25;exitDx=0;exitDy=0;entryX=0;entryY=0.75;entryDx=0;entryDy=0;" edge="1" parent="1" source="s8_o_wxNfZ0kV5NLu6gk-47" target="s8_o_wxNfZ0kV5NLu6gk-141">
          <mxGeometry relative="1" as="geometry">
            <Array as="points">
              <mxPoint x="-175" y="698" />
              <mxPoint x="-152" y="698" />
              <mxPoint x="-152" y="656" />
            </Array>
          </mxGeometry>
        </mxCell>
        <mxCell id="s8_o_wxNfZ0kV5NLu6gk-47" value="COUNTER(k)" style="rounded=0;whiteSpace=wrap;html=1;" vertex="1" parent="1">
          <mxGeometry x="-255" y="688" width="80" height="20" as="geometry" />
        </mxCell>
        <mxCell id="s8_o_wxNfZ0kV5NLu6gk-48" style="edgeStyle=orthogonalEdgeStyle;rounded=0;orthogonalLoop=1;jettySize=auto;html=1;exitX=0.5;exitY=0;exitDx=0;exitDy=0;" edge="1" parent="1" source="s8_o_wxNfZ0kV5NLu6gk-51">
          <mxGeometry relative="1" as="geometry">
            <mxPoint x="-215" y="628" as="targetPoint" />
          </mxGeometry>
        </mxCell>
        <mxCell id="s8_o_wxNfZ0kV5NLu6gk-49" style="edgeStyle=orthogonalEdgeStyle;rounded=0;orthogonalLoop=1;jettySize=auto;html=1;exitX=1;exitY=0.5;exitDx=0;exitDy=0;entryX=0;entryY=0.881;entryDx=0;entryDy=0;entryPerimeter=0;" edge="1" parent="1" source="s8_o_wxNfZ0kV5NLu6gk-51" target="s8_o_wxNfZ0kV5NLu6gk-63">
          <mxGeometry relative="1" as="geometry">
            <Array as="points">
              <mxPoint x="-112" y="658" />
              <mxPoint x="-112" y="522" />
            </Array>
          </mxGeometry>
        </mxCell>
        <mxCell id="s8_o_wxNfZ0kV5NLu6gk-50" style="edgeStyle=orthogonalEdgeStyle;rounded=0;orthogonalLoop=1;jettySize=auto;html=1;exitX=1;exitY=0.5;exitDx=0;exitDy=0;entryX=0;entryY=0.5;entryDx=0;entryDy=0;" edge="1" parent="1" source="s8_o_wxNfZ0kV5NLu6gk-51" target="s8_o_wxNfZ0kV5NLu6gk-66">
          <mxGeometry relative="1" as="geometry">
            <Array as="points">
              <mxPoint x="-112" y="658" />
              <mxPoint x="-112" y="573" />
            </Array>
          </mxGeometry>
        </mxCell>
        <mxCell id="s8_o_wxNfZ0kV5NLu6gk-51" value="COUNTER(m)" style="rounded=0;whiteSpace=wrap;html=1;" vertex="1" parent="1">
          <mxGeometry x="-255" y="648" width="80" height="20" as="geometry" />
        </mxCell>
        <mxCell id="s8_o_wxNfZ0kV5NLu6gk-52" style="edgeStyle=orthogonalEdgeStyle;rounded=0;orthogonalLoop=1;jettySize=auto;html=1;exitX=1;exitY=0.5;exitDx=0;exitDy=0;entryX=0;entryY=0.25;entryDx=0;entryDy=0;" edge="1" parent="1" source="s8_o_wxNfZ0kV5NLu6gk-54" target="s8_o_wxNfZ0kV5NLu6gk-66">
          <mxGeometry relative="1" as="geometry">
            <Array as="points">
              <mxPoint x="-132" y="617" />
              <mxPoint x="-132" y="561" />
            </Array>
          </mxGeometry>
        </mxCell>
        <mxCell id="s8_o_wxNfZ0kV5NLu6gk-53" style="edgeStyle=orthogonalEdgeStyle;rounded=0;orthogonalLoop=1;jettySize=auto;html=1;exitX=0.5;exitY=0;exitDx=0;exitDy=0;entryX=0.5;entryY=1;entryDx=0;entryDy=0;" edge="1" parent="1" source="s8_o_wxNfZ0kV5NLu6gk-54" target="s8_o_wxNfZ0kV5NLu6gk-38">
          <mxGeometry relative="1" as="geometry" />
        </mxCell>
        <mxCell id="s8_o_wxNfZ0kV5NLu6gk-54" value="COUNTER(l)" style="rounded=0;whiteSpace=wrap;html=1;" vertex="1" parent="1">
          <mxGeometry x="-255" y="607" width="80" height="20" as="geometry" />
        </mxCell>
        <mxCell id="s8_o_wxNfZ0kV5NLu6gk-55" style="edgeStyle=orthogonalEdgeStyle;rounded=0;orthogonalLoop=1;jettySize=auto;html=1;exitX=1;exitY=0.5;exitDx=0;exitDy=0;entryX=0;entryY=0.644;entryDx=0;entryDy=0;entryPerimeter=0;" edge="1" parent="1" source="s8_o_wxNfZ0kV5NLu6gk-58" target="s8_o_wxNfZ0kV5NLu6gk-63">
          <mxGeometry relative="1" as="geometry">
            <Array as="points">
              <mxPoint x="-122" y="538" />
              <mxPoint x="-122" y="510" />
            </Array>
          </mxGeometry>
        </mxCell>
        <mxCell id="s8_o_wxNfZ0kV5NLu6gk-56" style="edgeStyle=orthogonalEdgeStyle;rounded=0;orthogonalLoop=1;jettySize=auto;html=1;exitX=1;exitY=0.5;exitDx=0;exitDy=0;entryX=0;entryY=0.5;entryDx=0;entryDy=0;" edge="1" parent="1" source="s8_o_wxNfZ0kV5NLu6gk-58" target="s8_o_wxNfZ0kV5NLu6gk-141">
          <mxGeometry relative="1" as="geometry">
            <Array as="points">
              <mxPoint x="-122" y="538" />
              <mxPoint x="-122" y="643" />
            </Array>
          </mxGeometry>
        </mxCell>
        <mxCell id="s8_o_wxNfZ0kV5NLu6gk-57" style="edgeStyle=orthogonalEdgeStyle;rounded=0;orthogonalLoop=1;jettySize=auto;html=1;exitX=0.5;exitY=0;exitDx=0;exitDy=0;entryX=0.5;entryY=1;entryDx=0;entryDy=0;" edge="1" parent="1" source="s8_o_wxNfZ0kV5NLu6gk-58" target="s8_o_wxNfZ0kV5NLu6gk-61">
          <mxGeometry relative="1" as="geometry" />
        </mxCell>
        <mxCell id="s8_o_wxNfZ0kV5NLu6gk-58" value="COUNTER(j)" style="rounded=0;whiteSpace=wrap;html=1;" vertex="1" parent="1">
          <mxGeometry x="-255" y="528" width="80" height="20" as="geometry" />
        </mxCell>
        <mxCell id="s8_o_wxNfZ0kV5NLu6gk-59" style="edgeStyle=orthogonalEdgeStyle;rounded=0;orthogonalLoop=1;jettySize=auto;html=1;exitX=1;exitY=0.5;exitDx=0;exitDy=0;entryX=0;entryY=0.385;entryDx=0;entryDy=0;entryPerimeter=0;" edge="1" parent="1" source="s8_o_wxNfZ0kV5NLu6gk-61" target="s8_o_wxNfZ0kV5NLu6gk-63">
          <mxGeometry relative="1" as="geometry">
            <Array as="points">
              <mxPoint x="-175" y="497" />
            </Array>
          </mxGeometry>
        </mxCell>
        <mxCell id="s8_o_wxNfZ0kV5NLu6gk-60" style="edgeStyle=orthogonalEdgeStyle;rounded=0;orthogonalLoop=1;jettySize=auto;html=1;exitX=1;exitY=0.5;exitDx=0;exitDy=0;entryX=0;entryY=0.25;entryDx=0;entryDy=0;" edge="1" parent="1" source="s8_o_wxNfZ0kV5NLu6gk-61" target="s8_o_wxNfZ0kV5NLu6gk-141">
          <mxGeometry relative="1" as="geometry">
            <Array as="points">
              <mxPoint x="-162" y="498" />
              <mxPoint x="-162" y="631" />
            </Array>
          </mxGeometry>
        </mxCell>
        <mxCell id="s8_o_wxNfZ0kV5NLu6gk-61" value="COUNTER(i)" style="rounded=0;whiteSpace=wrap;html=1;" vertex="1" parent="1">
          <mxGeometry x="-255" y="488" width="80" height="20" as="geometry" />
        </mxCell>
        <mxCell id="s8_o_wxNfZ0kV5NLu6gk-62" style="edgeStyle=orthogonalEdgeStyle;rounded=0;orthogonalLoop=1;jettySize=auto;html=1;exitX=1;exitY=0.5;exitDx=0;exitDy=0;entryX=0;entryY=0.5;entryDx=0;entryDy=0;" edge="1" parent="1" source="s8_o_wxNfZ0kV5NLu6gk-63" target="s8_o_wxNfZ0kV5NLu6gk-68">
          <mxGeometry relative="1" as="geometry" />
        </mxCell>
        <mxCell id="s8_o_wxNfZ0kV5NLu6gk-63" value="&lt;font face=&quot;Times New Roman&quot;&gt;I &lt;/font&gt;addr&lt;br&gt;calculator" style="rounded=0;whiteSpace=wrap;html=1;" vertex="1" parent="1">
          <mxGeometry x="-92" y="478" width="56" height="50" as="geometry" />
        </mxCell>
        <mxCell id="s8_o_wxNfZ0kV5NLu6gk-64" style="edgeStyle=orthogonalEdgeStyle;rounded=0;orthogonalLoop=1;jettySize=auto;html=1;exitX=0.5;exitY=1;exitDx=0;exitDy=0;" edge="1" parent="1" source="s8_o_wxNfZ0kV5NLu6gk-63" target="s8_o_wxNfZ0kV5NLu6gk-63">
          <mxGeometry relative="1" as="geometry" />
        </mxCell>
        <mxCell id="s8_o_wxNfZ0kV5NLu6gk-65" style="edgeStyle=orthogonalEdgeStyle;rounded=0;orthogonalLoop=1;jettySize=auto;html=1;exitX=1;exitY=0.5;exitDx=0;exitDy=0;entryX=0;entryY=0.5;entryDx=0;entryDy=0;" edge="1" parent="1" source="s8_o_wxNfZ0kV5NLu6gk-66" target="s8_o_wxNfZ0kV5NLu6gk-70">
          <mxGeometry relative="1" as="geometry" />
        </mxCell>
        <mxCell id="s8_o_wxNfZ0kV5NLu6gk-66" value="&lt;font face=&quot;Times New Roman&quot;&gt;K &lt;/font&gt;addr&lt;br&gt;calculator" style="rounded=0;whiteSpace=wrap;html=1;" vertex="1" parent="1">
          <mxGeometry x="-92" y="548" width="56" height="50" as="geometry" />
        </mxCell>
        <mxCell id="s8_o_wxNfZ0kV5NLu6gk-67" style="edgeStyle=orthogonalEdgeStyle;rounded=0;orthogonalLoop=1;jettySize=auto;html=1;exitX=1;exitY=0.5;exitDx=0;exitDy=0;entryX=0;entryY=0.5;entryDx=0;entryDy=0;" edge="1" parent="1" source="s8_o_wxNfZ0kV5NLu6gk-68" target="s8_o_wxNfZ0kV5NLu6gk-79">
          <mxGeometry relative="1" as="geometry" />
        </mxCell>
        <mxCell id="s8_o_wxNfZ0kV5NLu6gk-68" value="COUNTER&lt;br&gt;(&lt;font face=&quot;Times New Roman&quot;&gt;I&lt;/font&gt; addr)" style="rounded=0;whiteSpace=wrap;html=1;" vertex="1" parent="1">
          <mxGeometry x="-22" y="488" width="70" height="30" as="geometry" />
        </mxCell>
        <mxCell id="s8_o_wxNfZ0kV5NLu6gk-69" style="edgeStyle=orthogonalEdgeStyle;rounded=0;orthogonalLoop=1;jettySize=auto;html=1;exitX=1;exitY=0.5;exitDx=0;exitDy=0;entryX=0;entryY=0.5;entryDx=0;entryDy=0;" edge="1" parent="1" source="s8_o_wxNfZ0kV5NLu6gk-70" target="s8_o_wxNfZ0kV5NLu6gk-88">
          <mxGeometry relative="1" as="geometry" />
        </mxCell>
        <mxCell id="s8_o_wxNfZ0kV5NLu6gk-70" value="COUNTER&lt;br&gt;(&lt;font face=&quot;Times New Roman&quot;&gt;K &lt;/font&gt;addr)" style="rounded=0;whiteSpace=wrap;html=1;" vertex="1" parent="1">
          <mxGeometry x="-22" y="558" width="70" height="30" as="geometry" />
        </mxCell>
        <mxCell id="s8_o_wxNfZ0kV5NLu6gk-71" style="edgeStyle=orthogonalEdgeStyle;rounded=0;orthogonalLoop=1;jettySize=auto;html=1;exitX=1;exitY=0.5;exitDx=0;exitDy=0;entryX=0;entryY=0.25;entryDx=0;entryDy=0;" edge="1" parent="1" source="s8_o_wxNfZ0kV5NLu6gk-79" target="s8_o_wxNfZ0kV5NLu6gk-93">
          <mxGeometry relative="1" as="geometry">
            <Array as="points">
              <mxPoint x="188" y="503" />
              <mxPoint x="188" y="466" />
            </Array>
          </mxGeometry>
        </mxCell>
        <mxCell id="s8_o_wxNfZ0kV5NLu6gk-72" style="edgeStyle=orthogonalEdgeStyle;rounded=0;orthogonalLoop=1;jettySize=auto;html=1;exitX=1;exitY=0.5;exitDx=0;exitDy=0;entryX=0;entryY=0.25;entryDx=0;entryDy=0;" edge="1" parent="1" source="s8_o_wxNfZ0kV5NLu6gk-79" target="s8_o_wxNfZ0kV5NLu6gk-94">
          <mxGeometry relative="1" as="geometry">
            <Array as="points">
              <mxPoint x="188" y="503" />
              <mxPoint x="188" y="496" />
            </Array>
          </mxGeometry>
        </mxCell>
        <mxCell id="s8_o_wxNfZ0kV5NLu6gk-73" style="edgeStyle=orthogonalEdgeStyle;rounded=0;orthogonalLoop=1;jettySize=auto;html=1;exitX=1;exitY=0.5;exitDx=0;exitDy=0;entryX=0;entryY=0.25;entryDx=0;entryDy=0;" edge="1" parent="1" source="s8_o_wxNfZ0kV5NLu6gk-79" target="s8_o_wxNfZ0kV5NLu6gk-95">
          <mxGeometry relative="1" as="geometry">
            <Array as="points">
              <mxPoint x="188" y="503" />
              <mxPoint x="188" y="526" />
            </Array>
          </mxGeometry>
        </mxCell>
        <mxCell id="s8_o_wxNfZ0kV5NLu6gk-74" style="edgeStyle=orthogonalEdgeStyle;rounded=0;orthogonalLoop=1;jettySize=auto;html=1;exitX=1;exitY=0.5;exitDx=0;exitDy=0;entryX=0;entryY=0.25;entryDx=0;entryDy=0;" edge="1" parent="1" source="s8_o_wxNfZ0kV5NLu6gk-79" target="s8_o_wxNfZ0kV5NLu6gk-96">
          <mxGeometry relative="1" as="geometry">
            <Array as="points">
              <mxPoint x="188" y="503" />
              <mxPoint x="188" y="556" />
            </Array>
          </mxGeometry>
        </mxCell>
        <mxCell id="s8_o_wxNfZ0kV5NLu6gk-75" style="edgeStyle=orthogonalEdgeStyle;rounded=0;orthogonalLoop=1;jettySize=auto;html=1;exitX=1;exitY=0.5;exitDx=0;exitDy=0;entryX=0;entryY=0.25;entryDx=0;entryDy=0;" edge="1" parent="1" source="s8_o_wxNfZ0kV5NLu6gk-79" target="s8_o_wxNfZ0kV5NLu6gk-97">
          <mxGeometry relative="1" as="geometry">
            <Array as="points">
              <mxPoint x="188" y="503" />
              <mxPoint x="188" y="586" />
            </Array>
          </mxGeometry>
        </mxCell>
        <mxCell id="s8_o_wxNfZ0kV5NLu6gk-76" style="edgeStyle=orthogonalEdgeStyle;rounded=0;orthogonalLoop=1;jettySize=auto;html=1;exitX=1;exitY=0.5;exitDx=0;exitDy=0;entryX=0;entryY=0.25;entryDx=0;entryDy=0;" edge="1" parent="1" source="s8_o_wxNfZ0kV5NLu6gk-79" target="s8_o_wxNfZ0kV5NLu6gk-98">
          <mxGeometry relative="1" as="geometry">
            <Array as="points">
              <mxPoint x="188" y="503" />
              <mxPoint x="188" y="616" />
            </Array>
          </mxGeometry>
        </mxCell>
        <mxCell id="s8_o_wxNfZ0kV5NLu6gk-77" style="edgeStyle=orthogonalEdgeStyle;rounded=0;orthogonalLoop=1;jettySize=auto;html=1;exitX=1;exitY=0.5;exitDx=0;exitDy=0;entryX=0;entryY=0.25;entryDx=0;entryDy=0;" edge="1" parent="1" source="s8_o_wxNfZ0kV5NLu6gk-79" target="s8_o_wxNfZ0kV5NLu6gk-99">
          <mxGeometry relative="1" as="geometry">
            <Array as="points">
              <mxPoint x="188" y="503" />
              <mxPoint x="188" y="646" />
            </Array>
          </mxGeometry>
        </mxCell>
        <mxCell id="s8_o_wxNfZ0kV5NLu6gk-78" style="edgeStyle=orthogonalEdgeStyle;rounded=0;orthogonalLoop=1;jettySize=auto;html=1;exitX=1;exitY=0.5;exitDx=0;exitDy=0;entryX=0;entryY=0.25;entryDx=0;entryDy=0;" edge="1" parent="1" source="s8_o_wxNfZ0kV5NLu6gk-79" target="s8_o_wxNfZ0kV5NLu6gk-100">
          <mxGeometry relative="1" as="geometry">
            <Array as="points">
              <mxPoint x="188" y="503" />
              <mxPoint x="188" y="676" />
            </Array>
          </mxGeometry>
        </mxCell>
        <mxCell id="s8_o_wxNfZ0kV5NLu6gk-79" value="Scratchpad&lt;br&gt;buffer (&lt;font face=&quot;Times New Roman&quot;&gt;I&lt;/font&gt;)" style="rounded=0;whiteSpace=wrap;html=1;" vertex="1" parent="1">
          <mxGeometry x="68" y="483" width="70" height="40" as="geometry" />
        </mxCell>
        <mxCell id="s8_o_wxNfZ0kV5NLu6gk-80" style="edgeStyle=orthogonalEdgeStyle;rounded=0;orthogonalLoop=1;jettySize=auto;html=1;exitX=1;exitY=0.5;exitDx=0;exitDy=0;entryX=0;entryY=0.75;entryDx=0;entryDy=0;" edge="1" parent="1" source="s8_o_wxNfZ0kV5NLu6gk-88" target="s8_o_wxNfZ0kV5NLu6gk-93">
          <mxGeometry relative="1" as="geometry">
            <Array as="points">
              <mxPoint x="158" y="573" />
              <mxPoint x="158" y="481" />
            </Array>
          </mxGeometry>
        </mxCell>
        <mxCell id="s8_o_wxNfZ0kV5NLu6gk-81" style="edgeStyle=orthogonalEdgeStyle;rounded=0;orthogonalLoop=1;jettySize=auto;html=1;exitX=1;exitY=0.5;exitDx=0;exitDy=0;entryX=0;entryY=0.75;entryDx=0;entryDy=0;" edge="1" parent="1" source="s8_o_wxNfZ0kV5NLu6gk-88" target="s8_o_wxNfZ0kV5NLu6gk-94">
          <mxGeometry relative="1" as="geometry">
            <Array as="points">
              <mxPoint x="158" y="573" />
              <mxPoint x="158" y="511" />
            </Array>
          </mxGeometry>
        </mxCell>
        <mxCell id="s8_o_wxNfZ0kV5NLu6gk-82" style="edgeStyle=orthogonalEdgeStyle;rounded=0;orthogonalLoop=1;jettySize=auto;html=1;exitX=1;exitY=0.5;exitDx=0;exitDy=0;entryX=0;entryY=0.75;entryDx=0;entryDy=0;" edge="1" parent="1" source="s8_o_wxNfZ0kV5NLu6gk-88" target="s8_o_wxNfZ0kV5NLu6gk-95">
          <mxGeometry relative="1" as="geometry">
            <Array as="points">
              <mxPoint x="158" y="573" />
              <mxPoint x="158" y="541" />
            </Array>
          </mxGeometry>
        </mxCell>
        <mxCell id="s8_o_wxNfZ0kV5NLu6gk-83" style="edgeStyle=orthogonalEdgeStyle;rounded=0;orthogonalLoop=1;jettySize=auto;html=1;exitX=1;exitY=0.5;exitDx=0;exitDy=0;entryX=0;entryY=0.75;entryDx=0;entryDy=0;" edge="1" parent="1" source="s8_o_wxNfZ0kV5NLu6gk-88" target="s8_o_wxNfZ0kV5NLu6gk-96">
          <mxGeometry relative="1" as="geometry">
            <Array as="points">
              <mxPoint x="183" y="573" />
              <mxPoint x="183" y="571" />
            </Array>
          </mxGeometry>
        </mxCell>
        <mxCell id="s8_o_wxNfZ0kV5NLu6gk-84" style="edgeStyle=orthogonalEdgeStyle;rounded=0;orthogonalLoop=1;jettySize=auto;html=1;exitX=1;exitY=0.5;exitDx=0;exitDy=0;entryX=0;entryY=0.75;entryDx=0;entryDy=0;" edge="1" parent="1" source="s8_o_wxNfZ0kV5NLu6gk-88" target="s8_o_wxNfZ0kV5NLu6gk-97">
          <mxGeometry relative="1" as="geometry">
            <Array as="points">
              <mxPoint x="158" y="573" />
              <mxPoint x="158" y="601" />
            </Array>
          </mxGeometry>
        </mxCell>
        <mxCell id="s8_o_wxNfZ0kV5NLu6gk-85" style="edgeStyle=orthogonalEdgeStyle;rounded=0;orthogonalLoop=1;jettySize=auto;html=1;exitX=1;exitY=0.5;exitDx=0;exitDy=0;entryX=0;entryY=0.75;entryDx=0;entryDy=0;" edge="1" parent="1" source="s8_o_wxNfZ0kV5NLu6gk-88" target="s8_o_wxNfZ0kV5NLu6gk-98">
          <mxGeometry relative="1" as="geometry">
            <Array as="points">
              <mxPoint x="158" y="573" />
              <mxPoint x="158" y="631" />
            </Array>
          </mxGeometry>
        </mxCell>
        <mxCell id="s8_o_wxNfZ0kV5NLu6gk-86" style="edgeStyle=orthogonalEdgeStyle;rounded=0;orthogonalLoop=1;jettySize=auto;html=1;exitX=1;exitY=0.5;exitDx=0;exitDy=0;entryX=0;entryY=0.75;entryDx=0;entryDy=0;" edge="1" parent="1" source="s8_o_wxNfZ0kV5NLu6gk-88" target="s8_o_wxNfZ0kV5NLu6gk-99">
          <mxGeometry relative="1" as="geometry">
            <Array as="points">
              <mxPoint x="158" y="573" />
              <mxPoint x="158" y="661" />
            </Array>
          </mxGeometry>
        </mxCell>
        <mxCell id="s8_o_wxNfZ0kV5NLu6gk-87" style="edgeStyle=orthogonalEdgeStyle;rounded=0;orthogonalLoop=1;jettySize=auto;html=1;exitX=1;exitY=0.5;exitDx=0;exitDy=0;entryX=0;entryY=0.75;entryDx=0;entryDy=0;" edge="1" parent="1" source="s8_o_wxNfZ0kV5NLu6gk-88" target="s8_o_wxNfZ0kV5NLu6gk-100">
          <mxGeometry relative="1" as="geometry">
            <Array as="points">
              <mxPoint x="158" y="573" />
              <mxPoint x="158" y="691" />
            </Array>
          </mxGeometry>
        </mxCell>
        <mxCell id="s8_o_wxNfZ0kV5NLu6gk-88" value="Scratchpad&lt;br&gt;buffer (&lt;font face=&quot;Times New Roman&quot;&gt;K&lt;/font&gt;)" style="rounded=0;whiteSpace=wrap;html=1;" vertex="1" parent="1">
          <mxGeometry x="68" y="553" width="70" height="40" as="geometry" />
        </mxCell>
        <mxCell id="s8_o_wxNfZ0kV5NLu6gk-89" style="edgeStyle=orthogonalEdgeStyle;rounded=0;orthogonalLoop=1;jettySize=auto;html=1;exitX=1;exitY=0.5;exitDx=0;exitDy=0;entryX=0;entryY=0.25;entryDx=0;entryDy=0;" edge="1" parent="1" source="s8_o_wxNfZ0kV5NLu6gk-93" target="s8_o_wxNfZ0kV5NLu6gk-127">
          <mxGeometry relative="1" as="geometry">
            <Array as="points">
              <mxPoint x="318" y="473" />
              <mxPoint x="318" y="499" />
            </Array>
          </mxGeometry>
        </mxCell>
        <mxCell id="s8_o_wxNfZ0kV5NLu6gk-90" style="edgeStyle=orthogonalEdgeStyle;rounded=0;orthogonalLoop=1;jettySize=auto;html=1;exitX=1;exitY=0.5;exitDx=0;exitDy=0;entryX=0.25;entryY=0;entryDx=0;entryDy=0;" edge="1" parent="1" source="s8_o_wxNfZ0kV5NLu6gk-93" target="s8_o_wxNfZ0kV5NLu6gk-129">
          <mxGeometry relative="1" as="geometry">
            <Array as="points">
              <mxPoint x="318" y="473" />
              <mxPoint x="318" y="539" />
            </Array>
          </mxGeometry>
        </mxCell>
        <mxCell id="s8_o_wxNfZ0kV5NLu6gk-91" style="edgeStyle=orthogonalEdgeStyle;rounded=0;orthogonalLoop=1;jettySize=auto;html=1;exitX=1;exitY=0.5;exitDx=0;exitDy=0;entryX=0;entryY=0.25;entryDx=0;entryDy=0;" edge="1" parent="1" source="s8_o_wxNfZ0kV5NLu6gk-93" target="s8_o_wxNfZ0kV5NLu6gk-134">
          <mxGeometry relative="1" as="geometry">
            <Array as="points">
              <mxPoint x="318" y="473" />
              <mxPoint x="318" y="581" />
            </Array>
          </mxGeometry>
        </mxCell>
        <mxCell id="s8_o_wxNfZ0kV5NLu6gk-92" style="edgeStyle=orthogonalEdgeStyle;rounded=0;orthogonalLoop=1;jettySize=auto;html=1;exitX=1;exitY=0.5;exitDx=0;exitDy=0;entryX=0;entryY=0.25;entryDx=0;entryDy=0;" edge="1" parent="1" source="s8_o_wxNfZ0kV5NLu6gk-93" target="s8_o_wxNfZ0kV5NLu6gk-137">
          <mxGeometry relative="1" as="geometry">
            <Array as="points">
              <mxPoint x="318" y="473" />
              <mxPoint x="318" y="622" />
            </Array>
          </mxGeometry>
        </mxCell>
        <mxCell id="s8_o_wxNfZ0kV5NLu6gk-93" value="MUL" style="rounded=0;whiteSpace=wrap;html=1;" vertex="1" parent="1">
          <mxGeometry x="228" y="458" width="40" height="30" as="geometry" />
        </mxCell>
        <mxCell id="s8_o_wxNfZ0kV5NLu6gk-94" value="MUL" style="rounded=0;whiteSpace=wrap;html=1;" vertex="1" parent="1">
          <mxGeometry x="228" y="488" width="40" height="30" as="geometry" />
        </mxCell>
        <mxCell id="s8_o_wxNfZ0kV5NLu6gk-95" value="MUL" style="rounded=0;whiteSpace=wrap;html=1;" vertex="1" parent="1">
          <mxGeometry x="228" y="518" width="40" height="30" as="geometry" />
        </mxCell>
        <mxCell id="s8_o_wxNfZ0kV5NLu6gk-96" value="MUL" style="rounded=0;whiteSpace=wrap;html=1;" vertex="1" parent="1">
          <mxGeometry x="228" y="548" width="40" height="30" as="geometry" />
        </mxCell>
        <mxCell id="s8_o_wxNfZ0kV5NLu6gk-97" value="MUL" style="rounded=0;whiteSpace=wrap;html=1;" vertex="1" parent="1">
          <mxGeometry x="228" y="578" width="40" height="30" as="geometry" />
        </mxCell>
        <mxCell id="s8_o_wxNfZ0kV5NLu6gk-98" value="MUL" style="rounded=0;whiteSpace=wrap;html=1;" vertex="1" parent="1">
          <mxGeometry x="228" y="608" width="40" height="30" as="geometry" />
        </mxCell>
        <mxCell id="s8_o_wxNfZ0kV5NLu6gk-99" value="MUL" style="rounded=0;whiteSpace=wrap;html=1;" vertex="1" parent="1">
          <mxGeometry x="228" y="638" width="40" height="30" as="geometry" />
        </mxCell>
        <mxCell id="s8_o_wxNfZ0kV5NLu6gk-100" value="MUL" style="rounded=0;whiteSpace=wrap;html=1;" vertex="1" parent="1">
          <mxGeometry x="228" y="668" width="40" height="30" as="geometry" />
        </mxCell>
        <mxCell id="s8_o_wxNfZ0kV5NLu6gk-101" value="32" style="text;html=1;strokeColor=none;fillColor=none;align=center;verticalAlign=middle;whiteSpace=wrap;rounded=0;" vertex="1" parent="1">
          <mxGeometry x="336" y="518" width="40" height="20" as="geometry" />
        </mxCell>
        <mxCell id="s8_o_wxNfZ0kV5NLu6gk-102" value="32 MUL" style="text;html=1;strokeColor=none;fillColor=none;align=center;verticalAlign=middle;whiteSpace=wrap;rounded=0;" vertex="1" parent="1">
          <mxGeometry x="238" y="738" width="50" height="20" as="geometry" />
        </mxCell>
        <mxCell id="s8_o_wxNfZ0kV5NLu6gk-103" value="" style="endArrow=none;html=1;" edge="1" parent="1">
          <mxGeometry width="50" height="50" relative="1" as="geometry">
            <mxPoint x="176" y="686" as="sourcePoint" />
            <mxPoint x="166" y="696" as="targetPoint" />
          </mxGeometry>
        </mxCell>
        <mxCell id="s8_o_wxNfZ0kV5NLu6gk-104" value="&lt;font style=&quot;font-size: 10px&quot;&gt;8&lt;/font&gt;" style="text;html=1;strokeColor=none;fillColor=none;align=center;verticalAlign=middle;whiteSpace=wrap;rounded=0;" vertex="1" parent="1">
          <mxGeometry x="168" y="693" width="20" height="15" as="geometry" />
        </mxCell>
        <mxCell id="s8_o_wxNfZ0kV5NLu6gk-105" value="" style="endArrow=none;html=1;" edge="1" parent="1">
          <mxGeometry width="50" height="50" relative="1" as="geometry">
            <mxPoint x="176" y="656" as="sourcePoint" />
            <mxPoint x="166" y="666" as="targetPoint" />
          </mxGeometry>
        </mxCell>
        <mxCell id="s8_o_wxNfZ0kV5NLu6gk-106" value="&lt;font style=&quot;font-size: 10px&quot;&gt;8&lt;/font&gt;" style="text;html=1;strokeColor=none;fillColor=none;align=center;verticalAlign=middle;whiteSpace=wrap;rounded=0;" vertex="1" parent="1">
          <mxGeometry x="168" y="663" width="20" height="15" as="geometry" />
        </mxCell>
        <mxCell id="s8_o_wxNfZ0kV5NLu6gk-107" value="" style="endArrow=none;html=1;" edge="1" parent="1">
          <mxGeometry width="50" height="50" relative="1" as="geometry">
            <mxPoint x="176" y="626" as="sourcePoint" />
            <mxPoint x="166" y="636" as="targetPoint" />
          </mxGeometry>
        </mxCell>
        <mxCell id="s8_o_wxNfZ0kV5NLu6gk-108" value="&lt;font style=&quot;font-size: 10px&quot;&gt;8&lt;/font&gt;" style="text;html=1;strokeColor=none;fillColor=none;align=center;verticalAlign=middle;whiteSpace=wrap;rounded=0;" vertex="1" parent="1">
          <mxGeometry x="168" y="633" width="20" height="15" as="geometry" />
        </mxCell>
        <mxCell id="s8_o_wxNfZ0kV5NLu6gk-109" value="" style="endArrow=none;html=1;" edge="1" parent="1">
          <mxGeometry width="50" height="50" relative="1" as="geometry">
            <mxPoint x="176" y="598" as="sourcePoint" />
            <mxPoint x="166" y="608" as="targetPoint" />
          </mxGeometry>
        </mxCell>
        <mxCell id="s8_o_wxNfZ0kV5NLu6gk-110" value="&lt;font style=&quot;font-size: 10px&quot;&gt;8&lt;/font&gt;" style="text;html=1;strokeColor=none;fillColor=none;align=center;verticalAlign=middle;whiteSpace=wrap;rounded=0;" vertex="1" parent="1">
          <mxGeometry x="168" y="605" width="20" height="15" as="geometry" />
        </mxCell>
        <mxCell id="s8_o_wxNfZ0kV5NLu6gk-111" value="" style="endArrow=none;html=1;" edge="1" parent="1">
          <mxGeometry width="50" height="50" relative="1" as="geometry">
            <mxPoint x="176" y="568" as="sourcePoint" />
            <mxPoint x="166" y="578" as="targetPoint" />
          </mxGeometry>
        </mxCell>
        <mxCell id="s8_o_wxNfZ0kV5NLu6gk-112" value="&lt;font style=&quot;font-size: 8px&quot;&gt;8&lt;/font&gt;" style="text;html=1;strokeColor=none;fillColor=none;align=center;verticalAlign=middle;whiteSpace=wrap;rounded=0;" vertex="1" parent="1">
          <mxGeometry x="168" y="575" width="20" height="15" as="geometry" />
        </mxCell>
        <mxCell id="s8_o_wxNfZ0kV5NLu6gk-113" value="" style="endArrow=none;html=1;" edge="1" parent="1">
          <mxGeometry width="50" height="50" relative="1" as="geometry">
            <mxPoint x="176" y="538" as="sourcePoint" />
            <mxPoint x="166" y="548" as="targetPoint" />
          </mxGeometry>
        </mxCell>
        <mxCell id="s8_o_wxNfZ0kV5NLu6gk-114" value="&lt;font style=&quot;font-size: 8px&quot;&gt;8&lt;/font&gt;" style="text;html=1;strokeColor=none;fillColor=none;align=center;verticalAlign=middle;whiteSpace=wrap;rounded=0;" vertex="1" parent="1">
          <mxGeometry x="168" y="545" width="20" height="15" as="geometry" />
        </mxCell>
        <mxCell id="s8_o_wxNfZ0kV5NLu6gk-115" value="" style="endArrow=none;html=1;" edge="1" parent="1">
          <mxGeometry width="50" height="50" relative="1" as="geometry">
            <mxPoint x="178" y="506" as="sourcePoint" />
            <mxPoint x="168" y="516" as="targetPoint" />
          </mxGeometry>
        </mxCell>
        <mxCell id="s8_o_wxNfZ0kV5NLu6gk-116" value="&lt;font style=&quot;font-size: 10px&quot;&gt;8&lt;/font&gt;" style="text;html=1;strokeColor=none;fillColor=none;align=center;verticalAlign=middle;whiteSpace=wrap;rounded=0;" vertex="1" parent="1">
          <mxGeometry x="170" y="513" width="20" height="15" as="geometry" />
        </mxCell>
        <mxCell id="s8_o_wxNfZ0kV5NLu6gk-117" value="" style="endArrow=none;html=1;" edge="1" parent="1">
          <mxGeometry width="50" height="50" relative="1" as="geometry">
            <mxPoint x="178" y="476" as="sourcePoint" />
            <mxPoint x="168" y="486" as="targetPoint" />
          </mxGeometry>
        </mxCell>
        <mxCell id="s8_o_wxNfZ0kV5NLu6gk-118" value="&lt;font style=&quot;font-size: 10px&quot;&gt;8&lt;/font&gt;" style="text;html=1;strokeColor=none;fillColor=none;align=center;verticalAlign=middle;whiteSpace=wrap;rounded=0;" vertex="1" parent="1">
          <mxGeometry x="170" y="483" width="20" height="15" as="geometry" />
        </mxCell>
        <mxCell id="s8_o_wxNfZ0kV5NLu6gk-119" value="" style="endArrow=none;html=1;" edge="1" parent="1">
          <mxGeometry width="50" height="50" relative="1" as="geometry">
            <mxPoint x="148" y="498" as="sourcePoint" />
            <mxPoint x="138" y="508" as="targetPoint" />
          </mxGeometry>
        </mxCell>
        <mxCell id="s8_o_wxNfZ0kV5NLu6gk-120" value="&lt;font style=&quot;font-size: 10px&quot;&gt;1&lt;/font&gt;" style="text;html=1;strokeColor=none;fillColor=none;align=center;verticalAlign=middle;whiteSpace=wrap;rounded=0;" vertex="1" parent="1">
          <mxGeometry x="138" y="503" width="20" height="15" as="geometry" />
        </mxCell>
        <mxCell id="s8_o_wxNfZ0kV5NLu6gk-121" value="" style="endArrow=none;html=1;" edge="1" parent="1">
          <mxGeometry width="50" height="50" relative="1" as="geometry">
            <mxPoint x="322" y="708" as="sourcePoint" />
            <mxPoint x="312" y="718" as="targetPoint" />
          </mxGeometry>
        </mxCell>
        <mxCell id="s8_o_wxNfZ0kV5NLu6gk-122" value="&lt;font style=&quot;font-size: 10px&quot;&gt;8&lt;/font&gt;" style="text;html=1;strokeColor=none;fillColor=none;align=center;verticalAlign=middle;whiteSpace=wrap;rounded=0;" vertex="1" parent="1">
          <mxGeometry x="314" y="715" width="20" height="15" as="geometry" />
        </mxCell>
        <mxCell id="s8_o_wxNfZ0kV5NLu6gk-123" value="" style="endArrow=none;html=1;" edge="1" parent="1">
          <mxGeometry width="50" height="50" relative="1" as="geometry">
            <mxPoint x="322" y="492" as="sourcePoint" />
            <mxPoint x="312" y="502" as="targetPoint" />
          </mxGeometry>
        </mxCell>
        <mxCell id="s8_o_wxNfZ0kV5NLu6gk-124" value="&lt;font style=&quot;font-size: 10px&quot;&gt;8&lt;/font&gt;" style="text;html=1;strokeColor=none;fillColor=none;align=center;verticalAlign=middle;whiteSpace=wrap;rounded=0;" vertex="1" parent="1">
          <mxGeometry x="314" y="500.5" width="20" height="15" as="geometry" />
        </mxCell>
        <mxCell id="s8_o_wxNfZ0kV5NLu6gk-125" value="..." style="text;html=1;strokeColor=none;fillColor=none;align=center;verticalAlign=middle;whiteSpace=wrap;rounded=0;rotation=90;" vertex="1" parent="1">
          <mxGeometry x="338" y="498" width="40" height="20" as="geometry" />
        </mxCell>
        <mxCell id="s8_o_wxNfZ0kV5NLu6gk-126" style="edgeStyle=orthogonalEdgeStyle;rounded=0;orthogonalLoop=1;jettySize=auto;html=1;exitX=1;exitY=0.5;exitDx=0;exitDy=0;entryX=0.157;entryY=1.083;entryDx=0;entryDy=0;entryPerimeter=0;" edge="1" parent="1" source="s8_o_wxNfZ0kV5NLu6gk-127" target="s8_o_wxNfZ0kV5NLu6gk-139">
          <mxGeometry relative="1" as="geometry">
            <Array as="points">
              <mxPoint x="418" y="508" />
            </Array>
          </mxGeometry>
        </mxCell>
        <mxCell id="s8_o_wxNfZ0kV5NLu6gk-127" value="" style="triangle;whiteSpace=wrap;html=1;" vertex="1" parent="1">
          <mxGeometry x="368" y="490.5" width="20" height="35" as="geometry" />
        </mxCell>
        <mxCell id="s8_o_wxNfZ0kV5NLu6gk-128" value="32" style="text;html=1;strokeColor=none;fillColor=none;align=center;verticalAlign=middle;whiteSpace=wrap;rounded=0;" vertex="1" parent="1">
          <mxGeometry x="337" y="559" width="40" height="20" as="geometry" />
        </mxCell>
        <mxCell id="s8_o_wxNfZ0kV5NLu6gk-129" value="..." style="text;html=1;strokeColor=none;fillColor=none;align=center;verticalAlign=middle;whiteSpace=wrap;rounded=0;rotation=90;" vertex="1" parent="1">
          <mxGeometry x="339" y="539" width="40" height="20" as="geometry" />
        </mxCell>
        <mxCell id="s8_o_wxNfZ0kV5NLu6gk-130" style="edgeStyle=orthogonalEdgeStyle;rounded=0;orthogonalLoop=1;jettySize=auto;html=1;exitX=1;exitY=0.5;exitDx=0;exitDy=0;entryX=0.391;entryY=1.083;entryDx=0;entryDy=0;entryPerimeter=0;" edge="1" parent="1" source="s8_o_wxNfZ0kV5NLu6gk-131" target="s8_o_wxNfZ0kV5NLu6gk-139">
          <mxGeometry relative="1" as="geometry" />
        </mxCell>
        <mxCell id="s8_o_wxNfZ0kV5NLu6gk-131" value="" style="triangle;whiteSpace=wrap;html=1;" vertex="1" parent="1">
          <mxGeometry x="369" y="531.5" width="20" height="35" as="geometry" />
        </mxCell>
        <mxCell id="s8_o_wxNfZ0kV5NLu6gk-132" value="..." style="text;html=1;strokeColor=none;fillColor=none;align=center;verticalAlign=middle;whiteSpace=wrap;rounded=0;rotation=90;" vertex="1" parent="1">
          <mxGeometry x="339" y="579.5" width="40" height="20" as="geometry" />
        </mxCell>
        <mxCell id="s8_o_wxNfZ0kV5NLu6gk-133" style="edgeStyle=orthogonalEdgeStyle;rounded=0;orthogonalLoop=1;jettySize=auto;html=1;exitX=1;exitY=0.5;exitDx=0;exitDy=0;" edge="1" parent="1" source="s8_o_wxNfZ0kV5NLu6gk-134">
          <mxGeometry relative="1" as="geometry">
            <mxPoint x="418" y="590" as="targetPoint" />
          </mxGeometry>
        </mxCell>
        <mxCell id="s8_o_wxNfZ0kV5NLu6gk-134" value="" style="triangle;whiteSpace=wrap;html=1;" vertex="1" parent="1">
          <mxGeometry x="369" y="572" width="20" height="35" as="geometry" />
        </mxCell>
        <mxCell id="s8_o_wxNfZ0kV5NLu6gk-135" value="..." style="text;html=1;strokeColor=none;fillColor=none;align=center;verticalAlign=middle;whiteSpace=wrap;rounded=0;rotation=90;" vertex="1" parent="1">
          <mxGeometry x="340" y="620.5" width="40" height="20" as="geometry" />
        </mxCell>
        <mxCell id="s8_o_wxNfZ0kV5NLu6gk-136" style="edgeStyle=orthogonalEdgeStyle;rounded=0;orthogonalLoop=1;jettySize=auto;html=1;exitX=1;exitY=0.5;exitDx=0;exitDy=0;entryX=0.86;entryY=1.083;entryDx=0;entryDy=0;entryPerimeter=0;" edge="1" parent="1" source="s8_o_wxNfZ0kV5NLu6gk-137" target="s8_o_wxNfZ0kV5NLu6gk-139">
          <mxGeometry relative="1" as="geometry" />
        </mxCell>
        <mxCell id="s8_o_wxNfZ0kV5NLu6gk-137" value="" style="triangle;whiteSpace=wrap;html=1;" vertex="1" parent="1">
          <mxGeometry x="370" y="613" width="20" height="35" as="geometry" />
        </mxCell>
        <mxCell id="s8_o_wxNfZ0kV5NLu6gk-138" style="edgeStyle=orthogonalEdgeStyle;rounded=0;orthogonalLoop=1;jettySize=auto;html=1;exitX=0.25;exitY=0;exitDx=0;exitDy=0;entryX=0.75;entryY=1;entryDx=0;entryDy=0;" edge="1" parent="1" source="s8_o_wxNfZ0kV5NLu6gk-139" target="s8_o_wxNfZ0kV5NLu6gk-145">
          <mxGeometry relative="1" as="geometry">
            <Array as="points">
              <mxPoint x="458" y="524" />
              <mxPoint x="458" y="487" />
            </Array>
          </mxGeometry>
        </mxCell>
        <mxCell id="s8_o_wxNfZ0kV5NLu6gk-139" value="accumulator" style="rounded=0;whiteSpace=wrap;html=1;rotation=90;" vertex="1" parent="1">
          <mxGeometry x="348" y="553" width="175" height="30" as="geometry" />
        </mxCell>
        <mxCell id="s8_o_wxNfZ0kV5NLu6gk-140" style="edgeStyle=orthogonalEdgeStyle;rounded=0;orthogonalLoop=1;jettySize=auto;html=1;exitX=1;exitY=0.5;exitDx=0;exitDy=0;entryX=0;entryY=0.5;entryDx=0;entryDy=0;" edge="1" parent="1" source="s8_o_wxNfZ0kV5NLu6gk-141" target="s8_o_wxNfZ0kV5NLu6gk-143">
          <mxGeometry relative="1" as="geometry" />
        </mxCell>
        <mxCell id="s8_o_wxNfZ0kV5NLu6gk-141" value="&lt;font face=&quot;Times New Roman&quot;&gt;O&amp;nbsp;&lt;/font&gt;addr&lt;br&gt;calculator" style="rounded=0;whiteSpace=wrap;html=1;" vertex="1" parent="1">
          <mxGeometry x="-92" y="618" width="56" height="50" as="geometry" />
        </mxCell>
        <mxCell id="s8_o_wxNfZ0kV5NLu6gk-142" style="edgeStyle=orthogonalEdgeStyle;rounded=0;orthogonalLoop=1;jettySize=auto;html=1;exitX=1;exitY=0.5;exitDx=0;exitDy=0;entryX=0.5;entryY=1;entryDx=0;entryDy=0;" edge="1" parent="1" source="s8_o_wxNfZ0kV5NLu6gk-143" target="s8_o_wxNfZ0kV5NLu6gk-152">
          <mxGeometry relative="1" as="geometry">
            <Array as="points">
              <mxPoint x="78" y="643" />
              <mxPoint x="78" y="768" />
              <mxPoint x="572" y="768" />
            </Array>
          </mxGeometry>
        </mxCell>
        <mxCell id="s8_o_wxNfZ0kV5NLu6gk-143" value="COUNTER&lt;br&gt;(&lt;font face=&quot;Times New Roman&quot;&gt;O&amp;nbsp;&lt;/font&gt;addr)" style="rounded=0;whiteSpace=wrap;html=1;" vertex="1" parent="1">
          <mxGeometry x="-22" y="628" width="70" height="30" as="geometry" />
        </mxCell>
        <mxCell id="s8_o_wxNfZ0kV5NLu6gk-144" style="edgeStyle=orthogonalEdgeStyle;rounded=0;orthogonalLoop=1;jettySize=auto;html=1;exitX=0.5;exitY=0;exitDx=0;exitDy=0;entryX=0;entryY=0.5;entryDx=0;entryDy=0;" edge="1" parent="1" source="s8_o_wxNfZ0kV5NLu6gk-145" target="s8_o_wxNfZ0kV5NLu6gk-152">
          <mxGeometry relative="1" as="geometry" />
        </mxCell>
        <mxCell id="s8_o_wxNfZ0kV5NLu6gk-145" value="bias adder" style="rounded=0;whiteSpace=wrap;html=1;rotation=90;" vertex="1" parent="1">
          <mxGeometry x="438" y="448" width="107.5" height="25" as="geometry" />
        </mxCell>
        <mxCell id="s8_o_wxNfZ0kV5NLu6gk-146" style="edgeStyle=orthogonalEdgeStyle;rounded=0;orthogonalLoop=1;jettySize=auto;html=1;exitX=1;exitY=0.5;exitDx=0;exitDy=0;entryX=0;entryY=0.5;entryDx=0;entryDy=0;" edge="1" parent="1" source="s8_o_wxNfZ0kV5NLu6gk-147" target="s8_o_wxNfZ0kV5NLu6gk-149">
          <mxGeometry relative="1" as="geometry" />
        </mxCell>
        <mxCell id="s8_o_wxNfZ0kV5NLu6gk-147" value="&lt;font face=&quot;Times New Roman&quot;&gt;B&amp;nbsp;&lt;/font&gt;addr&lt;br&gt;calculator" style="rounded=0;whiteSpace=wrap;html=1;" vertex="1" parent="1">
          <mxGeometry x="-92" y="408" width="56" height="50" as="geometry" />
        </mxCell>
        <mxCell id="s8_o_wxNfZ0kV5NLu6gk-148" style="edgeStyle=orthogonalEdgeStyle;rounded=0;orthogonalLoop=1;jettySize=auto;html=1;exitX=1;exitY=0.5;exitDx=0;exitDy=0;entryX=0;entryY=0.5;entryDx=0;entryDy=0;" edge="1" parent="1" source="s8_o_wxNfZ0kV5NLu6gk-149" target="s8_o_wxNfZ0kV5NLu6gk-151">
          <mxGeometry relative="1" as="geometry" />
        </mxCell>
        <mxCell id="s8_o_wxNfZ0kV5NLu6gk-149" value="COUNTER&lt;br&gt;(&lt;font face=&quot;Times New Roman&quot;&gt;B&lt;/font&gt;&amp;nbsp;addr)" style="rounded=0;whiteSpace=wrap;html=1;" vertex="1" parent="1">
          <mxGeometry x="-22" y="418" width="70" height="30" as="geometry" />
        </mxCell>
        <mxCell id="s8_o_wxNfZ0kV5NLu6gk-150" style="edgeStyle=orthogonalEdgeStyle;rounded=0;orthogonalLoop=1;jettySize=auto;html=1;exitX=1;exitY=0.5;exitDx=0;exitDy=0;entryX=0.25;entryY=1;entryDx=0;entryDy=0;" edge="1" parent="1" source="s8_o_wxNfZ0kV5NLu6gk-151" target="s8_o_wxNfZ0kV5NLu6gk-145">
          <mxGeometry relative="1" as="geometry" />
        </mxCell>
        <mxCell id="s8_o_wxNfZ0kV5NLu6gk-151" value="Scratchpad&lt;br&gt;buffer (&lt;font face=&quot;Times New Roman&quot;&gt;B&lt;/font&gt;)" style="rounded=0;whiteSpace=wrap;html=1;" vertex="1" parent="1">
          <mxGeometry x="68" y="413" width="70" height="40" as="geometry" />
        </mxCell>
        <mxCell id="s8_o_wxNfZ0kV5NLu6gk-152" value="Scratchpad&lt;br&gt;buffer (&lt;font face=&quot;Times New Roman&quot;&gt;O&lt;/font&gt;)" style="rounded=0;whiteSpace=wrap;html=1;" vertex="1" parent="1">
          <mxGeometry x="537" y="440.5" width="70" height="40" as="geometry" />
        </mxCell>
        <mxCell id="s8_o_wxNfZ0kV5NLu6gk-155" style="edgeStyle=orthogonalEdgeStyle;rounded=0;orthogonalLoop=1;jettySize=auto;html=1;exitX=0.5;exitY=0;exitDx=0;exitDy=0;entryX=0.5;entryY=1;entryDx=0;entryDy=0;" edge="1" parent="1" source="s8_o_wxNfZ0kV5NLu6gk-156" target="s8_o_wxNfZ0kV5NLu6gk-158">
          <mxGeometry relative="1" as="geometry" />
        </mxCell>
        <mxCell id="s8_o_wxNfZ0kV5NLu6gk-188" style="edgeStyle=orthogonalEdgeStyle;rounded=0;orthogonalLoop=1;jettySize=auto;html=1;exitX=1;exitY=1;exitDx=0;exitDy=0;entryX=-0.005;entryY=0.955;entryDx=0;entryDy=0;entryPerimeter=0;fillColor=#0050ef;strokeColor=#001DBC;" edge="1" parent="1" source="s8_o_wxNfZ0kV5NLu6gk-156" target="s8_o_wxNfZ0kV5NLu6gk-180">
          <mxGeometry relative="1" as="geometry">
            <Array as="points">
              <mxPoint x="-340" y="1270" />
            </Array>
          </mxGeometry>
        </mxCell>
        <mxCell id="s8_o_wxNfZ0kV5NLu6gk-195" style="edgeStyle=orthogonalEdgeStyle;rounded=0;orthogonalLoop=1;jettySize=auto;html=1;exitX=1;exitY=0.5;exitDx=0;exitDy=0;entryX=0;entryY=0.5;entryDx=0;entryDy=0;fillColor=#e51400;strokeColor=#B20000;" edge="1" parent="1" source="s8_o_wxNfZ0kV5NLu6gk-156" target="s8_o_wxNfZ0kV5NLu6gk-175">
          <mxGeometry relative="1" as="geometry" />
        </mxCell>
        <mxCell id="s8_o_wxNfZ0kV5NLu6gk-156" value="COUNTER(k=8)" style="rounded=0;whiteSpace=wrap;html=1;" vertex="1" parent="1">
          <mxGeometry x="-450" y="1220" width="110" height="20" as="geometry" />
        </mxCell>
        <mxCell id="s8_o_wxNfZ0kV5NLu6gk-168" style="edgeStyle=orthogonalEdgeStyle;rounded=0;orthogonalLoop=1;jettySize=auto;html=1;exitX=0.5;exitY=0;exitDx=0;exitDy=0;entryX=0.5;entryY=1;entryDx=0;entryDy=0;" edge="1" parent="1" source="s8_o_wxNfZ0kV5NLu6gk-158" target="s8_o_wxNfZ0kV5NLu6gk-165">
          <mxGeometry relative="1" as="geometry" />
        </mxCell>
        <mxCell id="s8_o_wxNfZ0kV5NLu6gk-190" style="edgeStyle=orthogonalEdgeStyle;rounded=0;orthogonalLoop=1;jettySize=auto;html=1;exitX=1;exitY=0.5;exitDx=0;exitDy=0;entryX=0;entryY=0.5;entryDx=0;entryDy=0;fillColor=#0050ef;strokeColor=#001DBC;" edge="1" parent="1" source="s8_o_wxNfZ0kV5NLu6gk-158" target="s8_o_wxNfZ0kV5NLu6gk-185">
          <mxGeometry relative="1" as="geometry">
            <Array as="points">
              <mxPoint x="-330" y="1190" />
              <mxPoint x="-330" y="1245" />
            </Array>
          </mxGeometry>
        </mxCell>
        <mxCell id="s8_o_wxNfZ0kV5NLu6gk-158" value="COUNTER(w=16)" style="rounded=0;whiteSpace=wrap;html=1;" vertex="1" parent="1">
          <mxGeometry x="-450" y="1180" width="110" height="20" as="geometry" />
        </mxCell>
        <mxCell id="s8_o_wxNfZ0kV5NLu6gk-164" style="edgeStyle=orthogonalEdgeStyle;rounded=0;orthogonalLoop=1;jettySize=auto;html=1;exitX=0.5;exitY=0;exitDx=0;exitDy=0;entryX=0.5;entryY=1;entryDx=0;entryDy=0;" edge="1" parent="1" source="s8_o_wxNfZ0kV5NLu6gk-165" target="s8_o_wxNfZ0kV5NLu6gk-166">
          <mxGeometry relative="1" as="geometry" />
        </mxCell>
        <mxCell id="s8_o_wxNfZ0kV5NLu6gk-191" style="edgeStyle=orthogonalEdgeStyle;rounded=0;orthogonalLoop=1;jettySize=auto;html=1;exitX=1;exitY=0.5;exitDx=0;exitDy=0;entryX=0;entryY=0.5;entryDx=0;entryDy=0;fillColor=#0050ef;strokeColor=#001DBC;" edge="1" parent="1" source="s8_o_wxNfZ0kV5NLu6gk-165" target="s8_o_wxNfZ0kV5NLu6gk-186">
          <mxGeometry relative="1" as="geometry">
            <Array as="points">
              <mxPoint x="-320" y="1150" />
              <mxPoint x="-320" y="1215" />
            </Array>
          </mxGeometry>
        </mxCell>
        <mxCell id="s8_o_wxNfZ0kV5NLu6gk-165" value="COUNTER(p=10)" style="rounded=0;whiteSpace=wrap;html=1;" vertex="1" parent="1">
          <mxGeometry x="-450" y="1140" width="110" height="20" as="geometry" />
        </mxCell>
        <mxCell id="s8_o_wxNfZ0kV5NLu6gk-192" style="edgeStyle=orthogonalEdgeStyle;rounded=0;orthogonalLoop=1;jettySize=auto;html=1;exitX=1;exitY=0.5;exitDx=0;exitDy=0;entryX=0;entryY=0.5;entryDx=0;entryDy=0;fillColor=#0050ef;strokeColor=#001DBC;" edge="1" parent="1" source="s8_o_wxNfZ0kV5NLu6gk-166" target="s8_o_wxNfZ0kV5NLu6gk-189">
          <mxGeometry relative="1" as="geometry">
            <Array as="points">
              <mxPoint x="-310" y="1110" />
              <mxPoint x="-310" y="1184" />
            </Array>
          </mxGeometry>
        </mxCell>
        <mxCell id="s8_o_wxNfZ0kV5NLu6gk-193" style="edgeStyle=orthogonalEdgeStyle;rounded=0;orthogonalLoop=1;jettySize=auto;html=1;exitX=1;exitY=0.25;exitDx=0;exitDy=0;fillColor=#e51400;strokeColor=#B20000;" edge="1" parent="1" source="s8_o_wxNfZ0kV5NLu6gk-166">
          <mxGeometry relative="1" as="geometry">
            <mxPoint x="-260" y="1105.1724137931035" as="targetPoint" />
          </mxGeometry>
        </mxCell>
        <mxCell id="s8_o_wxNfZ0kV5NLu6gk-166" value="COUNTER(j=1152)" style="rounded=0;whiteSpace=wrap;html=1;" vertex="1" parent="1">
          <mxGeometry x="-450" y="1100" width="110" height="20" as="geometry" />
        </mxCell>
        <mxCell id="s8_o_wxNfZ0kV5NLu6gk-213" style="edgeStyle=orthogonalEdgeStyle;rounded=0;orthogonalLoop=1;jettySize=auto;html=1;exitX=1;exitY=0.25;exitDx=0;exitDy=0;fillColor=#e51400;strokeColor=#B20000;" edge="1" parent="1" source="s8_o_wxNfZ0kV5NLu6gk-169">
          <mxGeometry relative="1" as="geometry">
            <mxPoint x="-160" y="1106.5517241379312" as="targetPoint" />
          </mxGeometry>
        </mxCell>
        <mxCell id="s8_o_wxNfZ0kV5NLu6gk-169" value="Primary&lt;br&gt;Caps&lt;br&gt;address&lt;br&gt;calculator" style="whiteSpace=wrap;html=1;aspect=fixed;" vertex="1" parent="1">
          <mxGeometry x="-260" y="1090" width="65" height="65" as="geometry" />
        </mxCell>
        <mxCell id="s8_o_wxNfZ0kV5NLu6gk-175" value="1152 mult" style="ellipse;whiteSpace=wrap;html=1;aspect=fixed;" vertex="1" parent="1">
          <mxGeometry x="-290" y="1120" width="30" height="30" as="geometry" />
        </mxCell>
        <mxCell id="s8_o_wxNfZ0kV5NLu6gk-211" value="" style="edgeStyle=orthogonalEdgeStyle;rounded=0;orthogonalLoop=1;jettySize=auto;html=1;" edge="1" parent="1" source="s8_o_wxNfZ0kV5NLu6gk-180" target="s8_o_wxNfZ0kV5NLu6gk-199">
          <mxGeometry relative="1" as="geometry">
            <Array as="points">
              <mxPoint x="-190" y="1220" />
              <mxPoint x="-190" y="1220" />
            </Array>
          </mxGeometry>
        </mxCell>
        <mxCell id="s8_o_wxNfZ0kV5NLu6gk-180" value="&lt;span&gt;Weight&lt;/span&gt;&lt;br&gt;&lt;span&gt;address&lt;/span&gt;&lt;br&gt;&lt;span&gt;calculator&lt;/span&gt;" style="rounded=0;whiteSpace=wrap;html=1;" vertex="1" parent="1">
          <mxGeometry x="-260" y="1170" width="65" height="105" as="geometry" />
        </mxCell>
        <mxCell id="s8_o_wxNfZ0kV5NLu6gk-185" value="8 mult" style="ellipse;whiteSpace=wrap;html=1;aspect=fixed;" vertex="1" parent="1">
          <mxGeometry x="-290" y="1230" width="30" height="30" as="geometry" />
        </mxCell>
        <mxCell id="s8_o_wxNfZ0kV5NLu6gk-186" value="8*16&lt;br&gt;mult" style="ellipse;whiteSpace=wrap;html=1;aspect=fixed;" vertex="1" parent="1">
          <mxGeometry x="-290" y="1200" width="30" height="30" as="geometry" />
        </mxCell>
        <mxCell id="s8_o_wxNfZ0kV5NLu6gk-189" value="160&lt;br&gt;mult" style="ellipse;whiteSpace=wrap;html=1;aspect=fixed;" vertex="1" parent="1">
          <mxGeometry x="-290" y="1169" width="30" height="30" as="geometry" />
        </mxCell>
        <mxCell id="s8_o_wxNfZ0kV5NLu6gk-196" value="" style="rounded=0;whiteSpace=wrap;html=1;fillColor=#C4C4C4;" vertex="1" parent="1">
          <mxGeometry x="-2" y="1027.25" width="30" height="405.5" as="geometry" />
        </mxCell>
        <mxCell id="s8_o_wxNfZ0kV5NLu6gk-197" value="" style="rounded=0;whiteSpace=wrap;html=1;fillColor=#C4C4C4;" vertex="1" parent="1">
          <mxGeometry x="-105" y="1027.25" width="30" height="405.5" as="geometry" />
        </mxCell>
        <mxCell id="s8_o_wxNfZ0kV5NLu6gk-198" style="edgeStyle=orthogonalEdgeStyle;rounded=0;orthogonalLoop=1;jettySize=auto;html=1;exitX=1;exitY=0.5;exitDx=0;exitDy=0;entryX=0;entryY=0.5;entryDx=0;entryDy=0;" edge="1" parent="1" source="s8_o_wxNfZ0kV5NLu6gk-199" target="s8_o_wxNfZ0kV5NLu6gk-202">
          <mxGeometry relative="1" as="geometry" />
        </mxCell>
        <mxCell id="s8_o_wxNfZ0kV5NLu6gk-199" value="COUNTER&lt;br&gt;(&lt;font face=&quot;Times New Roman&quot;&gt;I&lt;/font&gt; addr)" style="rounded=0;whiteSpace=wrap;html=1;" vertex="1" parent="1">
          <mxGeometry x="-155" y="1205" width="70" height="30" as="geometry" />
        </mxCell>
        <mxCell id="s8_o_wxNfZ0kV5NLu6gk-200" style="edgeStyle=orthogonalEdgeStyle;rounded=0;orthogonalLoop=1;jettySize=auto;html=1;exitX=1;exitY=0.5;exitDx=0;exitDy=0;entryX=0;entryY=0.5;entryDx=0;entryDy=0;" edge="1" parent="1" source="s8_o_wxNfZ0kV5NLu6gk-201" target="s8_o_wxNfZ0kV5NLu6gk-203">
          <mxGeometry relative="1" as="geometry" />
        </mxCell>
        <mxCell id="s8_o_wxNfZ0kV5NLu6gk-201" value="COUNTER&lt;br&gt;(&lt;font face=&quot;Times New Roman&quot;&gt;K &lt;/font&gt;addr)" style="rounded=0;whiteSpace=wrap;html=1;" vertex="1" parent="1">
          <mxGeometry x="-155" y="1275" width="70" height="30" as="geometry" />
        </mxCell>
        <mxCell id="s8_o_wxNfZ0kV5NLu6gk-259" style="edgeStyle=orthogonalEdgeStyle;rounded=0;orthogonalLoop=1;jettySize=auto;html=1;exitX=1;exitY=0.5;exitDx=0;exitDy=0;entryX=0;entryY=0.75;entryDx=0;entryDy=0;" edge="1" parent="1" source="s8_o_wxNfZ0kV5NLu6gk-202" target="s8_o_wxNfZ0kV5NLu6gk-226">
          <mxGeometry relative="1" as="geometry">
            <Array as="points">
              <mxPoint x="50" y="1220" />
              <mxPoint x="50" y="1103" />
            </Array>
          </mxGeometry>
        </mxCell>
        <mxCell id="s8_o_wxNfZ0kV5NLu6gk-260" style="edgeStyle=orthogonalEdgeStyle;rounded=0;orthogonalLoop=1;jettySize=auto;html=1;exitX=1;exitY=0.5;exitDx=0;exitDy=0;entryX=0;entryY=0.75;entryDx=0;entryDy=0;" edge="1" parent="1" source="s8_o_wxNfZ0kV5NLu6gk-202" target="s8_o_wxNfZ0kV5NLu6gk-227">
          <mxGeometry relative="1" as="geometry">
            <Array as="points">
              <mxPoint x="50" y="1220" />
              <mxPoint x="50" y="1133" />
            </Array>
          </mxGeometry>
        </mxCell>
        <mxCell id="s8_o_wxNfZ0kV5NLu6gk-262" style="edgeStyle=orthogonalEdgeStyle;rounded=0;orthogonalLoop=1;jettySize=auto;html=1;exitX=1;exitY=0.5;exitDx=0;exitDy=0;entryX=0;entryY=0.75;entryDx=0;entryDy=0;" edge="1" parent="1" source="s8_o_wxNfZ0kV5NLu6gk-202" target="s8_o_wxNfZ0kV5NLu6gk-228">
          <mxGeometry relative="1" as="geometry">
            <Array as="points">
              <mxPoint x="50" y="1220" />
              <mxPoint x="50" y="1163" />
            </Array>
          </mxGeometry>
        </mxCell>
        <mxCell id="s8_o_wxNfZ0kV5NLu6gk-263" style="edgeStyle=orthogonalEdgeStyle;rounded=0;orthogonalLoop=1;jettySize=auto;html=1;exitX=1;exitY=0.5;exitDx=0;exitDy=0;entryX=0;entryY=0.75;entryDx=0;entryDy=0;" edge="1" parent="1" source="s8_o_wxNfZ0kV5NLu6gk-202" target="s8_o_wxNfZ0kV5NLu6gk-230">
          <mxGeometry relative="1" as="geometry" />
        </mxCell>
        <mxCell id="s8_o_wxNfZ0kV5NLu6gk-264" style="edgeStyle=orthogonalEdgeStyle;rounded=0;orthogonalLoop=1;jettySize=auto;html=1;exitX=1;exitY=0.5;exitDx=0;exitDy=0;entryX=0;entryY=0.75;entryDx=0;entryDy=0;" edge="1" parent="1" source="s8_o_wxNfZ0kV5NLu6gk-202" target="s8_o_wxNfZ0kV5NLu6gk-231">
          <mxGeometry relative="1" as="geometry">
            <Array as="points">
              <mxPoint x="50" y="1220" />
              <mxPoint x="50" y="1253" />
            </Array>
          </mxGeometry>
        </mxCell>
        <mxCell id="s8_o_wxNfZ0kV5NLu6gk-265" style="edgeStyle=orthogonalEdgeStyle;rounded=0;orthogonalLoop=1;jettySize=auto;html=1;exitX=1;exitY=0.5;exitDx=0;exitDy=0;entryX=0;entryY=0.75;entryDx=0;entryDy=0;" edge="1" parent="1" source="s8_o_wxNfZ0kV5NLu6gk-202" target="s8_o_wxNfZ0kV5NLu6gk-232">
          <mxGeometry relative="1" as="geometry">
            <Array as="points">
              <mxPoint x="50" y="1220" />
              <mxPoint x="50" y="1283" />
            </Array>
          </mxGeometry>
        </mxCell>
        <mxCell id="s8_o_wxNfZ0kV5NLu6gk-266" style="edgeStyle=orthogonalEdgeStyle;rounded=0;orthogonalLoop=1;jettySize=auto;html=1;exitX=1;exitY=0.5;exitDx=0;exitDy=0;entryX=0;entryY=0.75;entryDx=0;entryDy=0;" edge="1" parent="1" source="s8_o_wxNfZ0kV5NLu6gk-202" target="s8_o_wxNfZ0kV5NLu6gk-233">
          <mxGeometry relative="1" as="geometry">
            <Array as="points">
              <mxPoint x="50" y="1220" />
              <mxPoint x="50" y="1313" />
            </Array>
          </mxGeometry>
        </mxCell>
        <mxCell id="s8_o_wxNfZ0kV5NLu6gk-267" style="edgeStyle=orthogonalEdgeStyle;rounded=0;orthogonalLoop=1;jettySize=auto;html=1;exitX=1;exitY=0.5;exitDx=0;exitDy=0;entryX=0;entryY=0.75;entryDx=0;entryDy=0;" edge="1" parent="1" source="s8_o_wxNfZ0kV5NLu6gk-202" target="s8_o_wxNfZ0kV5NLu6gk-229">
          <mxGeometry relative="1" as="geometry">
            <Array as="points">
              <mxPoint x="50" y="1220" />
              <mxPoint x="50" y="1193" />
            </Array>
          </mxGeometry>
        </mxCell>
        <mxCell id="s8_o_wxNfZ0kV5NLu6gk-202" value="Scratchpad&lt;br&gt;buffer (&lt;font face=&quot;Times New Roman&quot;&gt;I&lt;/font&gt;)" style="rounded=0;whiteSpace=wrap;html=1;" vertex="1" parent="1">
          <mxGeometry x="-55" y="1200" width="70" height="40" as="geometry" />
        </mxCell>
        <mxCell id="s8_o_wxNfZ0kV5NLu6gk-203" value="Scratchpad&lt;br&gt;buffer (&lt;font face=&quot;Times New Roman&quot;&gt;K&lt;/font&gt;)" style="rounded=0;whiteSpace=wrap;html=1;" vertex="1" parent="1">
          <mxGeometry x="-55" y="1270" width="70" height="40" as="geometry" />
        </mxCell>
        <mxCell id="s8_o_wxNfZ0kV5NLu6gk-205" style="edgeStyle=orthogonalEdgeStyle;rounded=0;orthogonalLoop=1;jettySize=auto;html=1;exitX=1;exitY=0.5;exitDx=0;exitDy=0;entryX=0;entryY=0.5;entryDx=0;entryDy=0;fillColor=#e51400;strokeColor=#B20000;" edge="1" parent="1" source="s8_o_wxNfZ0kV5NLu6gk-206" target="s8_o_wxNfZ0kV5NLu6gk-207">
          <mxGeometry relative="1" as="geometry" />
        </mxCell>
        <mxCell id="s8_o_wxNfZ0kV5NLu6gk-206" value="COUNTER&lt;br&gt;(&lt;font face=&quot;Times New Roman&quot;&gt;B&lt;/font&gt;&amp;nbsp;addr)" style="rounded=0;whiteSpace=wrap;html=1;" vertex="1" parent="1">
          <mxGeometry x="-155" y="1095" width="70" height="30" as="geometry" />
        </mxCell>
        <mxCell id="s8_o_wxNfZ0kV5NLu6gk-251" style="edgeStyle=orthogonalEdgeStyle;rounded=0;orthogonalLoop=1;jettySize=auto;html=1;exitX=1;exitY=0.5;exitDx=0;exitDy=0;entryX=0;entryY=0.25;entryDx=0;entryDy=0;fillColor=#e51400;strokeColor=#B20000;" edge="1" parent="1" source="s8_o_wxNfZ0kV5NLu6gk-207" target="s8_o_wxNfZ0kV5NLu6gk-226">
          <mxGeometry relative="1" as="geometry" />
        </mxCell>
        <mxCell id="s8_o_wxNfZ0kV5NLu6gk-252" style="edgeStyle=orthogonalEdgeStyle;rounded=0;orthogonalLoop=1;jettySize=auto;html=1;exitX=1;exitY=0.5;exitDx=0;exitDy=0;entryX=0;entryY=0.25;entryDx=0;entryDy=0;fillColor=#e51400;strokeColor=#B20000;" edge="1" parent="1" source="s8_o_wxNfZ0kV5NLu6gk-207" target="s8_o_wxNfZ0kV5NLu6gk-227">
          <mxGeometry relative="1" as="geometry" />
        </mxCell>
        <mxCell id="s8_o_wxNfZ0kV5NLu6gk-253" style="edgeStyle=orthogonalEdgeStyle;rounded=0;orthogonalLoop=1;jettySize=auto;html=1;exitX=1;exitY=0.5;exitDx=0;exitDy=0;entryX=0;entryY=0.25;entryDx=0;entryDy=0;fillColor=#e51400;strokeColor=#B20000;" edge="1" parent="1" source="s8_o_wxNfZ0kV5NLu6gk-207" target="s8_o_wxNfZ0kV5NLu6gk-228">
          <mxGeometry relative="1" as="geometry" />
        </mxCell>
        <mxCell id="s8_o_wxNfZ0kV5NLu6gk-254" style="edgeStyle=orthogonalEdgeStyle;rounded=0;orthogonalLoop=1;jettySize=auto;html=1;exitX=1;exitY=0.5;exitDx=0;exitDy=0;entryX=0;entryY=0.25;entryDx=0;entryDy=0;fillColor=#e51400;strokeColor=#B20000;" edge="1" parent="1" source="s8_o_wxNfZ0kV5NLu6gk-207" target="s8_o_wxNfZ0kV5NLu6gk-229">
          <mxGeometry relative="1" as="geometry" />
        </mxCell>
        <mxCell id="s8_o_wxNfZ0kV5NLu6gk-255" style="edgeStyle=orthogonalEdgeStyle;rounded=0;orthogonalLoop=1;jettySize=auto;html=1;exitX=1;exitY=0.5;exitDx=0;exitDy=0;entryX=0;entryY=0.25;entryDx=0;entryDy=0;fillColor=#e51400;strokeColor=#B20000;" edge="1" parent="1" source="s8_o_wxNfZ0kV5NLu6gk-207" target="s8_o_wxNfZ0kV5NLu6gk-230">
          <mxGeometry relative="1" as="geometry" />
        </mxCell>
        <mxCell id="s8_o_wxNfZ0kV5NLu6gk-256" style="edgeStyle=orthogonalEdgeStyle;rounded=0;orthogonalLoop=1;jettySize=auto;html=1;exitX=1;exitY=0.5;exitDx=0;exitDy=0;entryX=0;entryY=0.25;entryDx=0;entryDy=0;fillColor=#e51400;strokeColor=#B20000;" edge="1" parent="1" source="s8_o_wxNfZ0kV5NLu6gk-207" target="s8_o_wxNfZ0kV5NLu6gk-231">
          <mxGeometry relative="1" as="geometry" />
        </mxCell>
        <mxCell id="s8_o_wxNfZ0kV5NLu6gk-257" style="edgeStyle=orthogonalEdgeStyle;rounded=0;orthogonalLoop=1;jettySize=auto;html=1;exitX=1;exitY=0.5;exitDx=0;exitDy=0;entryX=0;entryY=0.25;entryDx=0;entryDy=0;fillColor=#e51400;strokeColor=#B20000;" edge="1" parent="1" source="s8_o_wxNfZ0kV5NLu6gk-207" target="s8_o_wxNfZ0kV5NLu6gk-232">
          <mxGeometry relative="1" as="geometry" />
        </mxCell>
        <mxCell id="s8_o_wxNfZ0kV5NLu6gk-258" style="edgeStyle=orthogonalEdgeStyle;rounded=0;orthogonalLoop=1;jettySize=auto;html=1;exitX=1;exitY=0.5;exitDx=0;exitDy=0;entryX=0;entryY=0.25;entryDx=0;entryDy=0;fillColor=#e51400;strokeColor=#B20000;" edge="1" parent="1" source="s8_o_wxNfZ0kV5NLu6gk-207" target="s8_o_wxNfZ0kV5NLu6gk-233">
          <mxGeometry relative="1" as="geometry" />
        </mxCell>
        <mxCell id="s8_o_wxNfZ0kV5NLu6gk-207" value="Scratchpad&lt;br&gt;buffer (&lt;font face=&quot;Times New Roman&quot;&gt;B&lt;/font&gt;)" style="rounded=0;whiteSpace=wrap;html=1;" vertex="1" parent="1">
          <mxGeometry x="-55" y="1090" width="70" height="40" as="geometry" />
        </mxCell>
        <mxCell id="s8_o_wxNfZ0kV5NLu6gk-214" value="System Interconnect" style="html=1;shadow=0;dashed=0;align=center;verticalAlign=middle;shape=mxgraph.arrows2.twoWayArrow;dy=0.65;dx=22;" vertex="1" parent="1">
          <mxGeometry x="-460" y="960" width="647" height="60" as="geometry" />
        </mxCell>
        <mxCell id="s8_o_wxNfZ0kV5NLu6gk-217" value="" style="html=1;shadow=0;dashed=0;align=center;verticalAlign=middle;shape=mxgraph.arrows2.twoWayArrow;dy=0.65;dx=22;rotation=90;" vertex="1" parent="1">
          <mxGeometry x="-85" y="1027.25" width="95" height="30" as="geometry" />
        </mxCell>
        <mxCell id="s8_o_wxNfZ0kV5NLu6gk-218" value="CONTROL&lt;br&gt;REGISTERS" style="shape=tape;whiteSpace=wrap;html=1;strokeWidth=2;size=0.19" vertex="1" parent="1">
          <mxGeometry x="-440" y="1027.25" width="320" height="40" as="geometry" />
        </mxCell>
        <mxCell id="s8_o_wxNfZ0kV5NLu6gk-219" value="" style="html=1;shadow=0;dashed=0;align=center;verticalAlign=middle;shape=mxgraph.arrows2.bendDoubleArrow;dy=2.39;dx=6.03;arrowHead=22.03;rounded=1;rotation=-45;" vertex="1" parent="1">
          <mxGeometry x="-390" y="1000" width="33.79" height="37.42" as="geometry" />
        </mxCell>
        <mxCell id="s8_o_wxNfZ0kV5NLu6gk-220" value="" style="html=1;shadow=0;dashed=0;align=center;verticalAlign=middle;shape=mxgraph.arrows2.sharpArrow2;dy1=0.89;dx1=17.24;dx2=15.7;dy3=0.89;dx3=15.7;notch=0;rotation=90;" vertex="1" parent="1">
          <mxGeometry x="-407.76" y="1069.12" width="31.38" height="25.88" as="geometry" />
        </mxCell>
        <mxCell id="s8_o_wxNfZ0kV5NLu6gk-221" value="" style="html=1;shadow=0;dashed=0;align=center;verticalAlign=middle;shape=mxgraph.arrows2.sharpArrow2;dy1=0.89;dx1=17.24;dx2=15.7;dy3=0.89;dx3=15.7;notch=0;rotation=90;" vertex="1" parent="1">
          <mxGeometry x="-439.14" y="1069.12" width="31.38" height="25.88" as="geometry" />
        </mxCell>
        <mxCell id="s8_o_wxNfZ0kV5NLu6gk-222" value="" style="html=1;shadow=0;dashed=0;align=center;verticalAlign=middle;shape=mxgraph.arrows2.sharpArrow2;dy1=0.89;dx1=17.24;dx2=15.7;dy3=0.89;dx3=15.7;notch=0;rotation=90;" vertex="1" parent="1">
          <mxGeometry x="-376.38" y="1069.12" width="31.38" height="25.88" as="geometry" />
        </mxCell>
        <mxCell id="s8_o_wxNfZ0kV5NLu6gk-226" value="MUL" style="rounded=0;whiteSpace=wrap;html=1;" vertex="1" parent="1">
          <mxGeometry x="138" y="1080" width="40" height="30" as="geometry" />
        </mxCell>
        <mxCell id="s8_o_wxNfZ0kV5NLu6gk-227" value="MUL" style="rounded=0;whiteSpace=wrap;html=1;" vertex="1" parent="1">
          <mxGeometry x="138" y="1110" width="40" height="30" as="geometry" />
        </mxCell>
        <mxCell id="s8_o_wxNfZ0kV5NLu6gk-228" value="MUL" style="rounded=0;whiteSpace=wrap;html=1;" vertex="1" parent="1">
          <mxGeometry x="138" y="1140" width="40" height="30" as="geometry" />
        </mxCell>
        <mxCell id="s8_o_wxNfZ0kV5NLu6gk-229" value="MUL" style="rounded=0;whiteSpace=wrap;html=1;" vertex="1" parent="1">
          <mxGeometry x="138" y="1170" width="40" height="30" as="geometry" />
        </mxCell>
        <mxCell id="s8_o_wxNfZ0kV5NLu6gk-230" value="MUL" style="rounded=0;whiteSpace=wrap;html=1;" vertex="1" parent="1">
          <mxGeometry x="138" y="1200" width="40" height="30" as="geometry" />
        </mxCell>
        <mxCell id="s8_o_wxNfZ0kV5NLu6gk-231" value="MUL" style="rounded=0;whiteSpace=wrap;html=1;" vertex="1" parent="1">
          <mxGeometry x="138" y="1230" width="40" height="30" as="geometry" />
        </mxCell>
        <mxCell id="s8_o_wxNfZ0kV5NLu6gk-232" value="MUL" style="rounded=0;whiteSpace=wrap;html=1;" vertex="1" parent="1">
          <mxGeometry x="138" y="1260" width="40" height="30" as="geometry" />
        </mxCell>
        <mxCell id="s8_o_wxNfZ0kV5NLu6gk-233" value="MUL" style="rounded=0;whiteSpace=wrap;html=1;" vertex="1" parent="1">
          <mxGeometry x="138" y="1290" width="40" height="30" as="geometry" />
        </mxCell>
      </root>
    </mxGraphModel>
  </diagram>
  <diagram name="Page-2" id="SjJuOc_aoIA_xtqaResH">
    <mxGraphModel dx="1787" dy="509" grid="1" gridSize="10" guides="1" tooltips="1" connect="1" arrows="1" fold="1" page="1" pageScale="1" pageWidth="827" pageHeight="1169" math="0" shadow="0">
      <root>
        <mxCell id="vuKj1LUhj5jE1AkjWa0U-0" />
        <mxCell id="vuKj1LUhj5jE1AkjWa0U-1" parent="vuKj1LUhj5jE1AkjWa0U-0" />
        <mxCell id="vuKj1LUhj5jE1AkjWa0U-2" value="" style="rounded=0;whiteSpace=wrap;html=1;fillColor=#C4C4C4;" vertex="1" parent="vuKj1LUhj5jE1AkjWa0U-1">
          <mxGeometry x="270" y="24.5" width="20" height="405.5" as="geometry" />
        </mxCell>
        <mxCell id="vuKj1LUhj5jE1AkjWa0U-3" value="" style="rounded=0;whiteSpace=wrap;html=1;fillColor=#C4C4C4;" vertex="1" parent="vuKj1LUhj5jE1AkjWa0U-1">
          <mxGeometry x="150" y="25.75" width="20" height="405.5" as="geometry" />
        </mxCell>
        <mxCell id="vuKj1LUhj5jE1AkjWa0U-4" value="" style="rounded=0;whiteSpace=wrap;html=1;fillColor=#C4C4C4;" vertex="1" parent="vuKj1LUhj5jE1AkjWa0U-1">
          <mxGeometry x="-30" y="24.5" width="20" height="405.5" as="geometry" />
        </mxCell>
        <mxCell id="vuKj1LUhj5jE1AkjWa0U-5" value="" style="rounded=0;whiteSpace=wrap;html=1;fillColor=#C4C4C4;" vertex="1" parent="vuKj1LUhj5jE1AkjWa0U-1">
          <mxGeometry x="-140" y="25.75" width="20" height="405.5" as="geometry" />
        </mxCell>
        <mxCell id="vuKj1LUhj5jE1AkjWa0U-6" value="MUL" style="rounded=0;whiteSpace=wrap;html=1;" vertex="1" parent="vuKj1LUhj5jE1AkjWa0U-1">
          <mxGeometry x="100" y="140" width="40" height="30" as="geometry" />
        </mxCell>
        <mxCell id="vuKj1LUhj5jE1AkjWa0U-7" value="MUL" style="rounded=0;whiteSpace=wrap;html=1;" vertex="1" parent="vuKj1LUhj5jE1AkjWa0U-1">
          <mxGeometry x="100" y="170" width="40" height="30" as="geometry" />
        </mxCell>
        <mxCell id="vuKj1LUhj5jE1AkjWa0U-8" value="MUL" style="rounded=0;whiteSpace=wrap;html=1;" vertex="1" parent="vuKj1LUhj5jE1AkjWa0U-1">
          <mxGeometry x="100" y="200" width="40" height="30" as="geometry" />
        </mxCell>
        <mxCell id="vuKj1LUhj5jE1AkjWa0U-9" value="MUL" style="rounded=0;whiteSpace=wrap;html=1;" vertex="1" parent="vuKj1LUhj5jE1AkjWa0U-1">
          <mxGeometry x="100" y="230" width="40" height="30" as="geometry" />
        </mxCell>
        <mxCell id="vuKj1LUhj5jE1AkjWa0U-10" value="MUL" style="rounded=0;whiteSpace=wrap;html=1;" vertex="1" parent="vuKj1LUhj5jE1AkjWa0U-1">
          <mxGeometry x="100" y="260" width="40" height="30" as="geometry" />
        </mxCell>
        <mxCell id="vuKj1LUhj5jE1AkjWa0U-11" value="MUL" style="rounded=0;whiteSpace=wrap;html=1;" vertex="1" parent="vuKj1LUhj5jE1AkjWa0U-1">
          <mxGeometry x="100" y="290" width="40" height="30" as="geometry" />
        </mxCell>
        <mxCell id="vuKj1LUhj5jE1AkjWa0U-12" value="MUL" style="rounded=0;whiteSpace=wrap;html=1;" vertex="1" parent="vuKj1LUhj5jE1AkjWa0U-1">
          <mxGeometry x="100" y="320" width="40" height="30" as="geometry" />
        </mxCell>
        <mxCell id="vuKj1LUhj5jE1AkjWa0U-16" style="edgeStyle=orthogonalEdgeStyle;rounded=0;orthogonalLoop=1;jettySize=auto;html=1;exitX=1;exitY=0.5;exitDx=0;exitDy=0;entryX=0.75;entryY=1;entryDx=0;entryDy=0;" edge="1" parent="vuKj1LUhj5jE1AkjWa0U-1" source="vuKj1LUhj5jE1AkjWa0U-17" target="vuKj1LUhj5jE1AkjWa0U-140">
          <mxGeometry relative="1" as="geometry">
            <Array as="points">
              <mxPoint x="160" y="365" />
              <mxPoint x="160" y="274" />
            </Array>
            <mxPoint x="211" y="250.25" as="targetPoint" />
          </mxGeometry>
        </mxCell>
        <mxCell id="vuKj1LUhj5jE1AkjWa0U-17" value="MUL" style="rounded=0;whiteSpace=wrap;html=1;" vertex="1" parent="vuKj1LUhj5jE1AkjWa0U-1">
          <mxGeometry x="100" y="350" width="40" height="30" as="geometry" />
        </mxCell>
        <mxCell id="vuKj1LUhj5jE1AkjWa0U-18" value="MUL" style="rounded=0;whiteSpace=wrap;html=1;" vertex="1" parent="vuKj1LUhj5jE1AkjWa0U-1">
          <mxGeometry x="90" y="130" width="40" height="30" as="geometry" />
        </mxCell>
        <mxCell id="vuKj1LUhj5jE1AkjWa0U-19" value="MUL" style="rounded=0;whiteSpace=wrap;html=1;" vertex="1" parent="vuKj1LUhj5jE1AkjWa0U-1">
          <mxGeometry x="90" y="160" width="40" height="30" as="geometry" />
        </mxCell>
        <mxCell id="vuKj1LUhj5jE1AkjWa0U-20" value="MUL" style="rounded=0;whiteSpace=wrap;html=1;" vertex="1" parent="vuKj1LUhj5jE1AkjWa0U-1">
          <mxGeometry x="90" y="190" width="40" height="30" as="geometry" />
        </mxCell>
        <mxCell id="vuKj1LUhj5jE1AkjWa0U-21" value="MUL" style="rounded=0;whiteSpace=wrap;html=1;" vertex="1" parent="vuKj1LUhj5jE1AkjWa0U-1">
          <mxGeometry x="90" y="220" width="40" height="30" as="geometry" />
        </mxCell>
        <mxCell id="vuKj1LUhj5jE1AkjWa0U-22" value="MUL" style="rounded=0;whiteSpace=wrap;html=1;" vertex="1" parent="vuKj1LUhj5jE1AkjWa0U-1">
          <mxGeometry x="90" y="250" width="40" height="30" as="geometry" />
        </mxCell>
        <mxCell id="vuKj1LUhj5jE1AkjWa0U-23" value="MUL" style="rounded=0;whiteSpace=wrap;html=1;" vertex="1" parent="vuKj1LUhj5jE1AkjWa0U-1">
          <mxGeometry x="90" y="280" width="40" height="30" as="geometry" />
        </mxCell>
        <mxCell id="vuKj1LUhj5jE1AkjWa0U-24" value="MUL" style="rounded=0;whiteSpace=wrap;html=1;" vertex="1" parent="vuKj1LUhj5jE1AkjWa0U-1">
          <mxGeometry x="90" y="310" width="40" height="30" as="geometry" />
        </mxCell>
        <mxCell id="vuKj1LUhj5jE1AkjWa0U-25" value="MUL" style="rounded=0;whiteSpace=wrap;html=1;" vertex="1" parent="vuKj1LUhj5jE1AkjWa0U-1">
          <mxGeometry x="90" y="340" width="40" height="30" as="geometry" />
        </mxCell>
        <mxCell id="vuKj1LUhj5jE1AkjWa0U-26" value="MUL" style="rounded=0;whiteSpace=wrap;html=1;" vertex="1" parent="vuKj1LUhj5jE1AkjWa0U-1">
          <mxGeometry x="80" y="120" width="40" height="30" as="geometry" />
        </mxCell>
        <mxCell id="vuKj1LUhj5jE1AkjWa0U-27" value="MUL" style="rounded=0;whiteSpace=wrap;html=1;" vertex="1" parent="vuKj1LUhj5jE1AkjWa0U-1">
          <mxGeometry x="80" y="150" width="40" height="30" as="geometry" />
        </mxCell>
        <mxCell id="vuKj1LUhj5jE1AkjWa0U-28" value="MUL" style="rounded=0;whiteSpace=wrap;html=1;" vertex="1" parent="vuKj1LUhj5jE1AkjWa0U-1">
          <mxGeometry x="80" y="180" width="40" height="30" as="geometry" />
        </mxCell>
        <mxCell id="vuKj1LUhj5jE1AkjWa0U-29" value="MUL" style="rounded=0;whiteSpace=wrap;html=1;" vertex="1" parent="vuKj1LUhj5jE1AkjWa0U-1">
          <mxGeometry x="80" y="210" width="40" height="30" as="geometry" />
        </mxCell>
        <mxCell id="vuKj1LUhj5jE1AkjWa0U-30" value="MUL" style="rounded=0;whiteSpace=wrap;html=1;" vertex="1" parent="vuKj1LUhj5jE1AkjWa0U-1">
          <mxGeometry x="80" y="240" width="40" height="30" as="geometry" />
        </mxCell>
        <mxCell id="vuKj1LUhj5jE1AkjWa0U-31" value="MUL" style="rounded=0;whiteSpace=wrap;html=1;" vertex="1" parent="vuKj1LUhj5jE1AkjWa0U-1">
          <mxGeometry x="80" y="270" width="40" height="30" as="geometry" />
        </mxCell>
        <mxCell id="vuKj1LUhj5jE1AkjWa0U-32" value="MUL" style="rounded=0;whiteSpace=wrap;html=1;" vertex="1" parent="vuKj1LUhj5jE1AkjWa0U-1">
          <mxGeometry x="80" y="300" width="40" height="30" as="geometry" />
        </mxCell>
        <mxCell id="vuKj1LUhj5jE1AkjWa0U-33" value="MUL" style="rounded=0;whiteSpace=wrap;html=1;" vertex="1" parent="vuKj1LUhj5jE1AkjWa0U-1">
          <mxGeometry x="80" y="330" width="40" height="30" as="geometry" />
        </mxCell>
        <mxCell id="vuKj1LUhj5jE1AkjWa0U-37" style="edgeStyle=orthogonalEdgeStyle;rounded=0;orthogonalLoop=1;jettySize=auto;html=1;exitX=0.5;exitY=0;exitDx=0;exitDy=0;entryX=0.5;entryY=1;entryDx=0;entryDy=0;" edge="1" parent="vuKj1LUhj5jE1AkjWa0U-1" source="vuKj1LUhj5jE1AkjWa0U-39" target="vuKj1LUhj5jE1AkjWa0U-59">
          <mxGeometry relative="1" as="geometry" />
        </mxCell>
        <mxCell id="vuKj1LUhj5jE1AkjWa0U-165" style="edgeStyle=orthogonalEdgeStyle;rounded=0;orthogonalLoop=1;jettySize=auto;html=1;exitX=1;exitY=0.5;exitDx=0;exitDy=0;entryX=0;entryY=0.25;entryDx=0;entryDy=0;" edge="1" parent="vuKj1LUhj5jE1AkjWa0U-1" source="vuKj1LUhj5jE1AkjWa0U-39" target="vuKj1LUhj5jE1AkjWa0U-64">
          <mxGeometry relative="1" as="geometry">
            <Array as="points">
              <mxPoint x="-310" y="234" />
              <mxPoint x="-310" y="143" />
            </Array>
          </mxGeometry>
        </mxCell>
        <mxCell id="vuKj1LUhj5jE1AkjWa0U-176" style="edgeStyle=orthogonalEdgeStyle;rounded=0;orthogonalLoop=1;jettySize=auto;html=1;exitX=1;exitY=0.5;exitDx=0;exitDy=0;entryX=0;entryY=0.25;entryDx=0;entryDy=0;" edge="1" parent="vuKj1LUhj5jE1AkjWa0U-1" source="vuKj1LUhj5jE1AkjWa0U-39" target="vuKj1LUhj5jE1AkjWa0U-67">
          <mxGeometry relative="1" as="geometry">
            <Array as="points">
              <mxPoint x="-310" y="234" />
              <mxPoint x="-310" y="213" />
            </Array>
          </mxGeometry>
        </mxCell>
        <mxCell id="vuKj1LUhj5jE1AkjWa0U-196" style="edgeStyle=orthogonalEdgeStyle;rounded=0;orthogonalLoop=1;jettySize=auto;html=1;exitX=0.5;exitY=0;exitDx=0;exitDy=0;entryX=1;entryY=0.5;entryDx=0;entryDy=0;" edge="1" parent="vuKj1LUhj5jE1AkjWa0U-1" source="vuKj1LUhj5jE1AkjWa0U-39" target="vuKj1LUhj5jE1AkjWa0U-140">
          <mxGeometry relative="1" as="geometry">
            <Array as="points">
              <mxPoint x="-388" y="210" />
              <mxPoint x="-448" y="210" />
              <mxPoint x="-448" y="420" />
              <mxPoint x="200" y="420" />
            </Array>
          </mxGeometry>
        </mxCell>
        <mxCell id="vuKj1LUhj5jE1AkjWa0U-39" value="COUNTER(p)" style="rounded=0;whiteSpace=wrap;html=1;" vertex="1" parent="vuKj1LUhj5jE1AkjWa0U-1">
          <mxGeometry x="-428" y="223.5" width="80" height="20" as="geometry" />
        </mxCell>
        <mxCell id="vuKj1LUhj5jE1AkjWa0U-164" style="edgeStyle=orthogonalEdgeStyle;rounded=0;orthogonalLoop=1;jettySize=auto;html=1;exitX=1;exitY=0.5;exitDx=0;exitDy=0;entryX=0;entryY=0;entryDx=0;entryDy=0;" edge="1" parent="vuKj1LUhj5jE1AkjWa0U-1" source="vuKj1LUhj5jE1AkjWa0U-48" target="vuKj1LUhj5jE1AkjWa0U-64">
          <mxGeometry relative="1" as="geometry">
            <Array as="points">
              <mxPoint x="-280" y="115" />
              <mxPoint x="-280" y="130" />
            </Array>
          </mxGeometry>
        </mxCell>
        <mxCell id="vuKj1LUhj5jE1AkjWa0U-192" style="edgeStyle=orthogonalEdgeStyle;rounded=0;orthogonalLoop=1;jettySize=auto;html=1;exitX=1;exitY=0.5;exitDx=0;exitDy=0;entryX=0;entryY=0.25;entryDx=0;entryDy=0;" edge="1" parent="vuKj1LUhj5jE1AkjWa0U-1" source="vuKj1LUhj5jE1AkjWa0U-48" target="vuKj1LUhj5jE1AkjWa0U-142">
          <mxGeometry relative="1" as="geometry">
            <Array as="points">
              <mxPoint x="-280" y="115" />
              <mxPoint x="-280" y="283" />
            </Array>
          </mxGeometry>
        </mxCell>
        <mxCell id="vuKj1LUhj5jE1AkjWa0U-48" value="COUNTER(i)" style="rounded=0;whiteSpace=wrap;html=1;" vertex="1" parent="vuKj1LUhj5jE1AkjWa0U-1">
          <mxGeometry x="-428" y="105" width="80" height="20" as="geometry" />
        </mxCell>
        <mxCell id="vuKj1LUhj5jE1AkjWa0U-49" style="edgeStyle=orthogonalEdgeStyle;rounded=0;orthogonalLoop=1;jettySize=auto;html=1;exitX=0.5;exitY=0;exitDx=0;exitDy=0;" edge="1" parent="vuKj1LUhj5jE1AkjWa0U-1" source="vuKj1LUhj5jE1AkjWa0U-52">
          <mxGeometry relative="1" as="geometry">
            <mxPoint x="-388" y="285" as="targetPoint" />
          </mxGeometry>
        </mxCell>
        <mxCell id="vuKj1LUhj5jE1AkjWa0U-163" style="edgeStyle=orthogonalEdgeStyle;rounded=0;orthogonalLoop=1;jettySize=auto;html=1;exitX=1;exitY=0.5;exitDx=0;exitDy=0;entryX=0;entryY=1;entryDx=0;entryDy=0;" edge="1" parent="vuKj1LUhj5jE1AkjWa0U-1" source="vuKj1LUhj5jE1AkjWa0U-52" target="vuKj1LUhj5jE1AkjWa0U-64">
          <mxGeometry relative="1" as="geometry">
            <Array as="points">
              <mxPoint x="-330" y="315" />
              <mxPoint x="-330" y="180" />
            </Array>
          </mxGeometry>
        </mxCell>
        <mxCell id="vuKj1LUhj5jE1AkjWa0U-186" style="edgeStyle=orthogonalEdgeStyle;rounded=0;orthogonalLoop=1;jettySize=auto;html=1;exitX=1;exitY=0.5;exitDx=0;exitDy=0;entryX=0;entryY=0.75;entryDx=0;entryDy=0;" edge="1" parent="vuKj1LUhj5jE1AkjWa0U-1" source="vuKj1LUhj5jE1AkjWa0U-52" target="vuKj1LUhj5jE1AkjWa0U-67">
          <mxGeometry relative="1" as="geometry">
            <Array as="points">
              <mxPoint x="-330" y="315" />
              <mxPoint x="-330" y="238" />
            </Array>
          </mxGeometry>
        </mxCell>
        <mxCell id="vuKj1LUhj5jE1AkjWa0U-52" value="COUNTER(m)" style="rounded=0;whiteSpace=wrap;html=1;" vertex="1" parent="vuKj1LUhj5jE1AkjWa0U-1">
          <mxGeometry x="-428" y="305" width="80" height="20" as="geometry" />
        </mxCell>
        <mxCell id="vuKj1LUhj5jE1AkjWa0U-54" style="edgeStyle=orthogonalEdgeStyle;rounded=0;orthogonalLoop=1;jettySize=auto;html=1;exitX=0.5;exitY=0;exitDx=0;exitDy=0;entryX=0.5;entryY=1;entryDx=0;entryDy=0;" edge="1" parent="vuKj1LUhj5jE1AkjWa0U-1" source="vuKj1LUhj5jE1AkjWa0U-55" target="vuKj1LUhj5jE1AkjWa0U-39">
          <mxGeometry relative="1" as="geometry" />
        </mxCell>
        <mxCell id="vuKj1LUhj5jE1AkjWa0U-162" style="edgeStyle=orthogonalEdgeStyle;rounded=0;orthogonalLoop=1;jettySize=auto;html=1;exitX=1;exitY=0.5;exitDx=0;exitDy=0;entryX=0;entryY=0.75;entryDx=0;entryDy=0;" edge="1" parent="vuKj1LUhj5jE1AkjWa0U-1" source="vuKj1LUhj5jE1AkjWa0U-55" target="vuKj1LUhj5jE1AkjWa0U-64">
          <mxGeometry relative="1" as="geometry">
            <Array as="points">
              <mxPoint x="-320" y="274" />
              <mxPoint x="-320" y="168" />
            </Array>
          </mxGeometry>
        </mxCell>
        <mxCell id="vuKj1LUhj5jE1AkjWa0U-185" style="edgeStyle=orthogonalEdgeStyle;rounded=0;orthogonalLoop=1;jettySize=auto;html=1;exitX=1;exitY=0.5;exitDx=0;exitDy=0;entryX=0;entryY=0.5;entryDx=0;entryDy=0;" edge="1" parent="vuKj1LUhj5jE1AkjWa0U-1" source="vuKj1LUhj5jE1AkjWa0U-55" target="vuKj1LUhj5jE1AkjWa0U-67">
          <mxGeometry relative="1" as="geometry">
            <Array as="points">
              <mxPoint x="-320" y="274" />
              <mxPoint x="-320" y="225" />
            </Array>
          </mxGeometry>
        </mxCell>
        <mxCell id="vuKj1LUhj5jE1AkjWa0U-55" value="COUNTER(l)" style="rounded=0;whiteSpace=wrap;html=1;" vertex="1" parent="vuKj1LUhj5jE1AkjWa0U-1">
          <mxGeometry x="-428" y="264" width="80" height="20" as="geometry" />
        </mxCell>
        <mxCell id="vuKj1LUhj5jE1AkjWa0U-58" style="edgeStyle=orthogonalEdgeStyle;rounded=0;orthogonalLoop=1;jettySize=auto;html=1;exitX=0.5;exitY=0;exitDx=0;exitDy=0;entryX=0.5;entryY=1;entryDx=0;entryDy=0;" edge="1" parent="vuKj1LUhj5jE1AkjWa0U-1" source="vuKj1LUhj5jE1AkjWa0U-59" target="vuKj1LUhj5jE1AkjWa0U-62">
          <mxGeometry relative="1" as="geometry" />
        </mxCell>
        <mxCell id="vuKj1LUhj5jE1AkjWa0U-156" style="edgeStyle=orthogonalEdgeStyle;rounded=0;orthogonalLoop=1;jettySize=auto;html=1;exitX=1;exitY=0.5;exitDx=0;exitDy=0;entryX=0;entryY=0.5;entryDx=0;entryDy=0;" edge="1" parent="vuKj1LUhj5jE1AkjWa0U-1" source="vuKj1LUhj5jE1AkjWa0U-59" target="vuKj1LUhj5jE1AkjWa0U-148">
          <mxGeometry relative="1" as="geometry">
            <Array as="points">
              <mxPoint x="-300" y="195" />
              <mxPoint x="-300" y="85" />
            </Array>
          </mxGeometry>
        </mxCell>
        <mxCell id="vuKj1LUhj5jE1AkjWa0U-177" style="edgeStyle=orthogonalEdgeStyle;rounded=0;orthogonalLoop=1;jettySize=auto;html=1;exitX=1;exitY=0.5;exitDx=0;exitDy=0;entryX=0;entryY=0;entryDx=0;entryDy=0;" edge="1" parent="vuKj1LUhj5jE1AkjWa0U-1" source="vuKj1LUhj5jE1AkjWa0U-59" target="vuKj1LUhj5jE1AkjWa0U-67">
          <mxGeometry relative="1" as="geometry">
            <Array as="points">
              <mxPoint x="-300" y="195" />
              <mxPoint x="-300" y="200" />
            </Array>
          </mxGeometry>
        </mxCell>
        <mxCell id="vuKj1LUhj5jE1AkjWa0U-189" style="edgeStyle=orthogonalEdgeStyle;rounded=0;orthogonalLoop=1;jettySize=auto;html=1;exitX=1;exitY=0.5;exitDx=0;exitDy=0;entryX=0;entryY=0.75;entryDx=0;entryDy=0;" edge="1" parent="vuKj1LUhj5jE1AkjWa0U-1" source="vuKj1LUhj5jE1AkjWa0U-59" target="vuKj1LUhj5jE1AkjWa0U-142">
          <mxGeometry relative="1" as="geometry">
            <Array as="points">
              <mxPoint x="-300" y="195" />
              <mxPoint x="-300" y="308" />
            </Array>
          </mxGeometry>
        </mxCell>
        <mxCell id="vuKj1LUhj5jE1AkjWa0U-59" value="COUNTER(k)" style="rounded=0;whiteSpace=wrap;html=1;" vertex="1" parent="vuKj1LUhj5jE1AkjWa0U-1">
          <mxGeometry x="-428" y="185" width="80" height="20" as="geometry" />
        </mxCell>
        <mxCell id="vuKj1LUhj5jE1AkjWa0U-155" style="edgeStyle=orthogonalEdgeStyle;rounded=0;orthogonalLoop=1;jettySize=auto;html=1;exitX=0.5;exitY=0;exitDx=0;exitDy=0;entryX=0.5;entryY=1;entryDx=0;entryDy=0;" edge="1" parent="vuKj1LUhj5jE1AkjWa0U-1" source="vuKj1LUhj5jE1AkjWa0U-62" target="vuKj1LUhj5jE1AkjWa0U-48">
          <mxGeometry relative="1" as="geometry" />
        </mxCell>
        <mxCell id="vuKj1LUhj5jE1AkjWa0U-159" style="edgeStyle=orthogonalEdgeStyle;rounded=0;orthogonalLoop=1;jettySize=auto;html=1;exitX=1;exitY=0.5;exitDx=0;exitDy=0;entryX=0;entryY=0.5;entryDx=0;entryDy=0;" edge="1" parent="vuKj1LUhj5jE1AkjWa0U-1" source="vuKj1LUhj5jE1AkjWa0U-62" target="vuKj1LUhj5jE1AkjWa0U-64">
          <mxGeometry relative="1" as="geometry">
            <Array as="points">
              <mxPoint x="-260" y="155" />
              <mxPoint x="-260" y="155" />
            </Array>
          </mxGeometry>
        </mxCell>
        <mxCell id="vuKj1LUhj5jE1AkjWa0U-191" style="edgeStyle=orthogonalEdgeStyle;rounded=0;orthogonalLoop=1;jettySize=auto;html=1;exitX=1;exitY=0.5;exitDx=0;exitDy=0;entryX=0;entryY=0.5;entryDx=0;entryDy=0;" edge="1" parent="vuKj1LUhj5jE1AkjWa0U-1" source="vuKj1LUhj5jE1AkjWa0U-62" target="vuKj1LUhj5jE1AkjWa0U-142">
          <mxGeometry relative="1" as="geometry">
            <Array as="points">
              <mxPoint x="-290" y="155" />
              <mxPoint x="-290" y="295" />
            </Array>
          </mxGeometry>
        </mxCell>
        <mxCell id="vuKj1LUhj5jE1AkjWa0U-62" value="COUNTER(j)" style="rounded=0;whiteSpace=wrap;html=1;" vertex="1" parent="vuKj1LUhj5jE1AkjWa0U-1">
          <mxGeometry x="-428" y="145" width="80" height="20" as="geometry" />
        </mxCell>
        <mxCell id="vuKj1LUhj5jE1AkjWa0U-63" style="edgeStyle=orthogonalEdgeStyle;rounded=0;orthogonalLoop=1;jettySize=auto;html=1;exitX=1;exitY=0.5;exitDx=0;exitDy=0;entryX=0;entryY=0.5;entryDx=0;entryDy=0;" edge="1" parent="vuKj1LUhj5jE1AkjWa0U-1" source="vuKj1LUhj5jE1AkjWa0U-64" target="vuKj1LUhj5jE1AkjWa0U-80">
          <mxGeometry relative="1" as="geometry">
            <mxPoint x="-180" y="155" as="targetPoint" />
          </mxGeometry>
        </mxCell>
        <mxCell id="vuKj1LUhj5jE1AkjWa0U-64" value="&lt;font face=&quot;Times New Roman&quot;&gt;I &lt;/font&gt;addr&lt;br&gt;calculator" style="rounded=0;whiteSpace=wrap;html=1;" vertex="1" parent="vuKj1LUhj5jE1AkjWa0U-1">
          <mxGeometry x="-250" y="130" width="56" height="50" as="geometry" />
        </mxCell>
        <mxCell id="vuKj1LUhj5jE1AkjWa0U-65" style="edgeStyle=orthogonalEdgeStyle;rounded=0;orthogonalLoop=1;jettySize=auto;html=1;exitX=0.5;exitY=1;exitDx=0;exitDy=0;" edge="1" parent="vuKj1LUhj5jE1AkjWa0U-1" source="vuKj1LUhj5jE1AkjWa0U-64" target="vuKj1LUhj5jE1AkjWa0U-64">
          <mxGeometry relative="1" as="geometry" />
        </mxCell>
        <mxCell id="vuKj1LUhj5jE1AkjWa0U-66" style="edgeStyle=orthogonalEdgeStyle;rounded=0;orthogonalLoop=1;jettySize=auto;html=1;exitX=1;exitY=0.5;exitDx=0;exitDy=0;entryX=0;entryY=0.5;entryDx=0;entryDy=0;" edge="1" parent="vuKj1LUhj5jE1AkjWa0U-1" source="vuKj1LUhj5jE1AkjWa0U-67" target="vuKj1LUhj5jE1AkjWa0U-89">
          <mxGeometry relative="1" as="geometry">
            <mxPoint x="-180" y="225" as="targetPoint" />
          </mxGeometry>
        </mxCell>
        <mxCell id="vuKj1LUhj5jE1AkjWa0U-67" value="&lt;font face=&quot;Times New Roman&quot;&gt;K &lt;/font&gt;addr&lt;br&gt;calculator" style="rounded=0;whiteSpace=wrap;html=1;" vertex="1" parent="vuKj1LUhj5jE1AkjWa0U-1">
          <mxGeometry x="-250" y="200" width="56" height="50" as="geometry" />
        </mxCell>
        <mxCell id="vuKj1LUhj5jE1AkjWa0U-72" style="edgeStyle=orthogonalEdgeStyle;rounded=0;orthogonalLoop=1;jettySize=auto;html=1;exitX=1;exitY=0.5;exitDx=0;exitDy=0;entryX=0;entryY=0.25;entryDx=0;entryDy=0;" edge="1" parent="vuKj1LUhj5jE1AkjWa0U-1" source="vuKj1LUhj5jE1AkjWa0U-80" target="vuKj1LUhj5jE1AkjWa0U-94">
          <mxGeometry relative="1" as="geometry">
            <Array as="points">
              <mxPoint x="30" y="155" />
              <mxPoint x="30" y="118" />
            </Array>
          </mxGeometry>
        </mxCell>
        <mxCell id="vuKj1LUhj5jE1AkjWa0U-73" style="edgeStyle=orthogonalEdgeStyle;rounded=0;orthogonalLoop=1;jettySize=auto;html=1;exitX=1;exitY=0.5;exitDx=0;exitDy=0;entryX=0;entryY=0.25;entryDx=0;entryDy=0;" edge="1" parent="vuKj1LUhj5jE1AkjWa0U-1" source="vuKj1LUhj5jE1AkjWa0U-80" target="vuKj1LUhj5jE1AkjWa0U-95">
          <mxGeometry relative="1" as="geometry">
            <Array as="points">
              <mxPoint x="30" y="155" />
              <mxPoint x="30" y="148" />
            </Array>
          </mxGeometry>
        </mxCell>
        <mxCell id="vuKj1LUhj5jE1AkjWa0U-74" style="edgeStyle=orthogonalEdgeStyle;rounded=0;orthogonalLoop=1;jettySize=auto;html=1;exitX=1;exitY=0.5;exitDx=0;exitDy=0;entryX=0;entryY=0.25;entryDx=0;entryDy=0;" edge="1" parent="vuKj1LUhj5jE1AkjWa0U-1" source="vuKj1LUhj5jE1AkjWa0U-80" target="vuKj1LUhj5jE1AkjWa0U-96">
          <mxGeometry relative="1" as="geometry">
            <Array as="points">
              <mxPoint x="30" y="155" />
              <mxPoint x="30" y="178" />
            </Array>
          </mxGeometry>
        </mxCell>
        <mxCell id="vuKj1LUhj5jE1AkjWa0U-75" style="edgeStyle=orthogonalEdgeStyle;rounded=0;orthogonalLoop=1;jettySize=auto;html=1;exitX=1;exitY=0.5;exitDx=0;exitDy=0;entryX=0;entryY=0.25;entryDx=0;entryDy=0;" edge="1" parent="vuKj1LUhj5jE1AkjWa0U-1" source="vuKj1LUhj5jE1AkjWa0U-80" target="vuKj1LUhj5jE1AkjWa0U-97">
          <mxGeometry relative="1" as="geometry">
            <Array as="points">
              <mxPoint x="30" y="155" />
              <mxPoint x="30" y="208" />
            </Array>
          </mxGeometry>
        </mxCell>
        <mxCell id="vuKj1LUhj5jE1AkjWa0U-76" style="edgeStyle=orthogonalEdgeStyle;rounded=0;orthogonalLoop=1;jettySize=auto;html=1;exitX=1;exitY=0.5;exitDx=0;exitDy=0;entryX=0;entryY=0.25;entryDx=0;entryDy=0;" edge="1" parent="vuKj1LUhj5jE1AkjWa0U-1" source="vuKj1LUhj5jE1AkjWa0U-80" target="vuKj1LUhj5jE1AkjWa0U-98">
          <mxGeometry relative="1" as="geometry">
            <Array as="points">
              <mxPoint x="30" y="155" />
              <mxPoint x="30" y="238" />
            </Array>
          </mxGeometry>
        </mxCell>
        <mxCell id="vuKj1LUhj5jE1AkjWa0U-77" style="edgeStyle=orthogonalEdgeStyle;rounded=0;orthogonalLoop=1;jettySize=auto;html=1;exitX=1;exitY=0.5;exitDx=0;exitDy=0;entryX=0;entryY=0.25;entryDx=0;entryDy=0;" edge="1" parent="vuKj1LUhj5jE1AkjWa0U-1" source="vuKj1LUhj5jE1AkjWa0U-80" target="vuKj1LUhj5jE1AkjWa0U-99">
          <mxGeometry relative="1" as="geometry">
            <Array as="points">
              <mxPoint x="30" y="155" />
              <mxPoint x="30" y="268" />
            </Array>
          </mxGeometry>
        </mxCell>
        <mxCell id="vuKj1LUhj5jE1AkjWa0U-78" style="edgeStyle=orthogonalEdgeStyle;rounded=0;orthogonalLoop=1;jettySize=auto;html=1;exitX=1;exitY=0.5;exitDx=0;exitDy=0;entryX=0;entryY=0.25;entryDx=0;entryDy=0;" edge="1" parent="vuKj1LUhj5jE1AkjWa0U-1" source="vuKj1LUhj5jE1AkjWa0U-80" target="vuKj1LUhj5jE1AkjWa0U-100">
          <mxGeometry relative="1" as="geometry">
            <Array as="points">
              <mxPoint x="30" y="155" />
              <mxPoint x="30" y="298" />
            </Array>
          </mxGeometry>
        </mxCell>
        <mxCell id="vuKj1LUhj5jE1AkjWa0U-79" style="edgeStyle=orthogonalEdgeStyle;rounded=0;orthogonalLoop=1;jettySize=auto;html=1;exitX=1;exitY=0.5;exitDx=0;exitDy=0;entryX=0;entryY=0.25;entryDx=0;entryDy=0;" edge="1" parent="vuKj1LUhj5jE1AkjWa0U-1" source="vuKj1LUhj5jE1AkjWa0U-80" target="vuKj1LUhj5jE1AkjWa0U-101">
          <mxGeometry relative="1" as="geometry">
            <Array as="points">
              <mxPoint x="30" y="155" />
              <mxPoint x="30" y="328" />
            </Array>
          </mxGeometry>
        </mxCell>
        <mxCell id="vuKj1LUhj5jE1AkjWa0U-80" value="Scratchpad&lt;br&gt;buffer (&lt;font face=&quot;Times New Roman&quot;&gt;I&lt;/font&gt;)" style="rounded=0;whiteSpace=wrap;html=1;" vertex="1" parent="vuKj1LUhj5jE1AkjWa0U-1">
          <mxGeometry x="-90" y="135" width="70" height="40" as="geometry" />
        </mxCell>
        <mxCell id="vuKj1LUhj5jE1AkjWa0U-81" style="edgeStyle=orthogonalEdgeStyle;rounded=0;orthogonalLoop=1;jettySize=auto;html=1;exitX=1;exitY=0.5;exitDx=0;exitDy=0;entryX=0;entryY=0.75;entryDx=0;entryDy=0;" edge="1" parent="vuKj1LUhj5jE1AkjWa0U-1" source="vuKj1LUhj5jE1AkjWa0U-89" target="vuKj1LUhj5jE1AkjWa0U-94">
          <mxGeometry relative="1" as="geometry">
            <Array as="points">
              <mxPoint y="225" />
              <mxPoint y="133" />
            </Array>
          </mxGeometry>
        </mxCell>
        <mxCell id="vuKj1LUhj5jE1AkjWa0U-82" style="edgeStyle=orthogonalEdgeStyle;rounded=0;orthogonalLoop=1;jettySize=auto;html=1;exitX=1;exitY=0.5;exitDx=0;exitDy=0;entryX=0;entryY=0.75;entryDx=0;entryDy=0;" edge="1" parent="vuKj1LUhj5jE1AkjWa0U-1" source="vuKj1LUhj5jE1AkjWa0U-89" target="vuKj1LUhj5jE1AkjWa0U-95">
          <mxGeometry relative="1" as="geometry">
            <Array as="points">
              <mxPoint y="225" />
              <mxPoint y="163" />
            </Array>
          </mxGeometry>
        </mxCell>
        <mxCell id="vuKj1LUhj5jE1AkjWa0U-83" style="edgeStyle=orthogonalEdgeStyle;rounded=0;orthogonalLoop=1;jettySize=auto;html=1;exitX=1;exitY=0.5;exitDx=0;exitDy=0;entryX=0;entryY=0.75;entryDx=0;entryDy=0;" edge="1" parent="vuKj1LUhj5jE1AkjWa0U-1" source="vuKj1LUhj5jE1AkjWa0U-89" target="vuKj1LUhj5jE1AkjWa0U-96">
          <mxGeometry relative="1" as="geometry">
            <Array as="points">
              <mxPoint y="225" />
              <mxPoint y="193" />
            </Array>
          </mxGeometry>
        </mxCell>
        <mxCell id="vuKj1LUhj5jE1AkjWa0U-84" style="edgeStyle=orthogonalEdgeStyle;rounded=0;orthogonalLoop=1;jettySize=auto;html=1;exitX=1;exitY=0.5;exitDx=0;exitDy=0;entryX=0;entryY=0.75;entryDx=0;entryDy=0;" edge="1" parent="vuKj1LUhj5jE1AkjWa0U-1" source="vuKj1LUhj5jE1AkjWa0U-89" target="vuKj1LUhj5jE1AkjWa0U-97">
          <mxGeometry relative="1" as="geometry">
            <Array as="points">
              <mxPoint x="25" y="225" />
              <mxPoint x="25" y="223" />
            </Array>
          </mxGeometry>
        </mxCell>
        <mxCell id="vuKj1LUhj5jE1AkjWa0U-85" style="edgeStyle=orthogonalEdgeStyle;rounded=0;orthogonalLoop=1;jettySize=auto;html=1;exitX=1;exitY=0.5;exitDx=0;exitDy=0;entryX=0;entryY=0.75;entryDx=0;entryDy=0;" edge="1" parent="vuKj1LUhj5jE1AkjWa0U-1" source="vuKj1LUhj5jE1AkjWa0U-89" target="vuKj1LUhj5jE1AkjWa0U-98">
          <mxGeometry relative="1" as="geometry">
            <Array as="points">
              <mxPoint y="225" />
              <mxPoint y="253" />
            </Array>
          </mxGeometry>
        </mxCell>
        <mxCell id="vuKj1LUhj5jE1AkjWa0U-86" style="edgeStyle=orthogonalEdgeStyle;rounded=0;orthogonalLoop=1;jettySize=auto;html=1;exitX=1;exitY=0.5;exitDx=0;exitDy=0;entryX=0;entryY=0.75;entryDx=0;entryDy=0;" edge="1" parent="vuKj1LUhj5jE1AkjWa0U-1" source="vuKj1LUhj5jE1AkjWa0U-89" target="vuKj1LUhj5jE1AkjWa0U-99">
          <mxGeometry relative="1" as="geometry">
            <Array as="points">
              <mxPoint y="225" />
              <mxPoint y="283" />
            </Array>
          </mxGeometry>
        </mxCell>
        <mxCell id="vuKj1LUhj5jE1AkjWa0U-87" style="edgeStyle=orthogonalEdgeStyle;rounded=0;orthogonalLoop=1;jettySize=auto;html=1;exitX=1;exitY=0.5;exitDx=0;exitDy=0;entryX=0;entryY=0.75;entryDx=0;entryDy=0;" edge="1" parent="vuKj1LUhj5jE1AkjWa0U-1" source="vuKj1LUhj5jE1AkjWa0U-89" target="vuKj1LUhj5jE1AkjWa0U-100">
          <mxGeometry relative="1" as="geometry">
            <Array as="points">
              <mxPoint y="225" />
              <mxPoint y="313" />
            </Array>
          </mxGeometry>
        </mxCell>
        <mxCell id="vuKj1LUhj5jE1AkjWa0U-88" style="edgeStyle=orthogonalEdgeStyle;rounded=0;orthogonalLoop=1;jettySize=auto;html=1;exitX=1;exitY=0.5;exitDx=0;exitDy=0;entryX=0;entryY=0.75;entryDx=0;entryDy=0;" edge="1" parent="vuKj1LUhj5jE1AkjWa0U-1" source="vuKj1LUhj5jE1AkjWa0U-89" target="vuKj1LUhj5jE1AkjWa0U-101">
          <mxGeometry relative="1" as="geometry">
            <Array as="points">
              <mxPoint y="225" />
              <mxPoint y="343" />
            </Array>
          </mxGeometry>
        </mxCell>
        <mxCell id="vuKj1LUhj5jE1AkjWa0U-89" value="Scratchpad&lt;br&gt;buffer (&lt;font face=&quot;Times New Roman&quot;&gt;K&lt;/font&gt;)" style="rounded=0;whiteSpace=wrap;html=1;" vertex="1" parent="vuKj1LUhj5jE1AkjWa0U-1">
          <mxGeometry x="-90" y="205" width="70" height="40" as="geometry" />
        </mxCell>
        <mxCell id="vuKj1LUhj5jE1AkjWa0U-92" style="edgeStyle=orthogonalEdgeStyle;rounded=0;orthogonalLoop=1;jettySize=auto;html=1;exitX=1;exitY=0.5;exitDx=0;exitDy=0;entryX=0.25;entryY=1;entryDx=0;entryDy=0;" edge="1" parent="vuKj1LUhj5jE1AkjWa0U-1" source="vuKj1LUhj5jE1AkjWa0U-94" target="vuKj1LUhj5jE1AkjWa0U-140">
          <mxGeometry relative="1" as="geometry">
            <Array as="points">
              <mxPoint x="160" y="125" />
              <mxPoint x="160" y="214" />
            </Array>
            <mxPoint x="211" y="232.75" as="targetPoint" />
          </mxGeometry>
        </mxCell>
        <mxCell id="vuKj1LUhj5jE1AkjWa0U-94" value="MUL" style="rounded=0;whiteSpace=wrap;html=1;" vertex="1" parent="vuKj1LUhj5jE1AkjWa0U-1">
          <mxGeometry x="70" y="110" width="40" height="30" as="geometry" />
        </mxCell>
        <mxCell id="vuKj1LUhj5jE1AkjWa0U-95" value="MUL" style="rounded=0;whiteSpace=wrap;html=1;" vertex="1" parent="vuKj1LUhj5jE1AkjWa0U-1">
          <mxGeometry x="70" y="140" width="40" height="30" as="geometry" />
        </mxCell>
        <mxCell id="vuKj1LUhj5jE1AkjWa0U-96" value="MUL" style="rounded=0;whiteSpace=wrap;html=1;" vertex="1" parent="vuKj1LUhj5jE1AkjWa0U-1">
          <mxGeometry x="70" y="170" width="40" height="30" as="geometry" />
        </mxCell>
        <mxCell id="vuKj1LUhj5jE1AkjWa0U-97" value="MUL" style="rounded=0;whiteSpace=wrap;html=1;" vertex="1" parent="vuKj1LUhj5jE1AkjWa0U-1">
          <mxGeometry x="70" y="200" width="40" height="30" as="geometry" />
        </mxCell>
        <mxCell id="vuKj1LUhj5jE1AkjWa0U-98" value="MUL" style="rounded=0;whiteSpace=wrap;html=1;" vertex="1" parent="vuKj1LUhj5jE1AkjWa0U-1">
          <mxGeometry x="70" y="230" width="40" height="30" as="geometry" />
        </mxCell>
        <mxCell id="vuKj1LUhj5jE1AkjWa0U-99" value="MUL" style="rounded=0;whiteSpace=wrap;html=1;" vertex="1" parent="vuKj1LUhj5jE1AkjWa0U-1">
          <mxGeometry x="70" y="260" width="40" height="30" as="geometry" />
        </mxCell>
        <mxCell id="vuKj1LUhj5jE1AkjWa0U-100" value="MUL" style="rounded=0;whiteSpace=wrap;html=1;" vertex="1" parent="vuKj1LUhj5jE1AkjWa0U-1">
          <mxGeometry x="70" y="290" width="40" height="30" as="geometry" />
        </mxCell>
        <mxCell id="vuKj1LUhj5jE1AkjWa0U-101" value="MUL" style="rounded=0;whiteSpace=wrap;html=1;" vertex="1" parent="vuKj1LUhj5jE1AkjWa0U-1">
          <mxGeometry x="70" y="320" width="40" height="30" as="geometry" />
        </mxCell>
        <mxCell id="vuKj1LUhj5jE1AkjWa0U-103" value="32 MUL" style="text;html=1;strokeColor=none;fillColor=none;align=center;verticalAlign=middle;whiteSpace=wrap;rounded=0;" vertex="1" parent="vuKj1LUhj5jE1AkjWa0U-1">
          <mxGeometry x="40" y="370" width="50" height="20" as="geometry" />
        </mxCell>
        <mxCell id="vuKj1LUhj5jE1AkjWa0U-104" value="" style="endArrow=none;html=1;" edge="1" parent="vuKj1LUhj5jE1AkjWa0U-1">
          <mxGeometry width="50" height="50" relative="1" as="geometry">
            <mxPoint x="18" y="338" as="sourcePoint" />
            <mxPoint x="8" y="348" as="targetPoint" />
          </mxGeometry>
        </mxCell>
        <mxCell id="vuKj1LUhj5jE1AkjWa0U-105" value="&lt;font style=&quot;font-size: 10px&quot;&gt;8&lt;/font&gt;" style="text;html=1;strokeColor=none;fillColor=none;align=center;verticalAlign=middle;whiteSpace=wrap;rounded=0;" vertex="1" parent="vuKj1LUhj5jE1AkjWa0U-1">
          <mxGeometry x="10" y="345" width="20" height="15" as="geometry" />
        </mxCell>
        <mxCell id="vuKj1LUhj5jE1AkjWa0U-106" value="" style="endArrow=none;html=1;" edge="1" parent="vuKj1LUhj5jE1AkjWa0U-1">
          <mxGeometry width="50" height="50" relative="1" as="geometry">
            <mxPoint x="18" y="308" as="sourcePoint" />
            <mxPoint x="8" y="318" as="targetPoint" />
          </mxGeometry>
        </mxCell>
        <mxCell id="vuKj1LUhj5jE1AkjWa0U-107" value="&lt;font style=&quot;font-size: 10px&quot;&gt;8&lt;/font&gt;" style="text;html=1;strokeColor=none;fillColor=none;align=center;verticalAlign=middle;whiteSpace=wrap;rounded=0;" vertex="1" parent="vuKj1LUhj5jE1AkjWa0U-1">
          <mxGeometry x="10" y="315" width="20" height="15" as="geometry" />
        </mxCell>
        <mxCell id="vuKj1LUhj5jE1AkjWa0U-108" value="" style="endArrow=none;html=1;" edge="1" parent="vuKj1LUhj5jE1AkjWa0U-1">
          <mxGeometry width="50" height="50" relative="1" as="geometry">
            <mxPoint x="18" y="278" as="sourcePoint" />
            <mxPoint x="8" y="288" as="targetPoint" />
          </mxGeometry>
        </mxCell>
        <mxCell id="vuKj1LUhj5jE1AkjWa0U-109" value="&lt;font style=&quot;font-size: 10px&quot;&gt;8&lt;/font&gt;" style="text;html=1;strokeColor=none;fillColor=none;align=center;verticalAlign=middle;whiteSpace=wrap;rounded=0;" vertex="1" parent="vuKj1LUhj5jE1AkjWa0U-1">
          <mxGeometry x="10" y="285" width="20" height="15" as="geometry" />
        </mxCell>
        <mxCell id="vuKj1LUhj5jE1AkjWa0U-110" value="" style="endArrow=none;html=1;" edge="1" parent="vuKj1LUhj5jE1AkjWa0U-1">
          <mxGeometry width="50" height="50" relative="1" as="geometry">
            <mxPoint x="18" y="250" as="sourcePoint" />
            <mxPoint x="8" y="260" as="targetPoint" />
          </mxGeometry>
        </mxCell>
        <mxCell id="vuKj1LUhj5jE1AkjWa0U-111" value="&lt;font style=&quot;font-size: 10px&quot;&gt;8&lt;/font&gt;" style="text;html=1;strokeColor=none;fillColor=none;align=center;verticalAlign=middle;whiteSpace=wrap;rounded=0;" vertex="1" parent="vuKj1LUhj5jE1AkjWa0U-1">
          <mxGeometry x="10" y="257" width="20" height="15" as="geometry" />
        </mxCell>
        <mxCell id="vuKj1LUhj5jE1AkjWa0U-112" value="" style="endArrow=none;html=1;" edge="1" parent="vuKj1LUhj5jE1AkjWa0U-1">
          <mxGeometry width="50" height="50" relative="1" as="geometry">
            <mxPoint x="18" y="220" as="sourcePoint" />
            <mxPoint x="8" y="230" as="targetPoint" />
          </mxGeometry>
        </mxCell>
        <mxCell id="vuKj1LUhj5jE1AkjWa0U-113" value="&lt;font style=&quot;font-size: 8px&quot;&gt;8&lt;/font&gt;" style="text;html=1;strokeColor=none;fillColor=none;align=center;verticalAlign=middle;whiteSpace=wrap;rounded=0;" vertex="1" parent="vuKj1LUhj5jE1AkjWa0U-1">
          <mxGeometry x="10" y="227" width="20" height="15" as="geometry" />
        </mxCell>
        <mxCell id="vuKj1LUhj5jE1AkjWa0U-114" value="" style="endArrow=none;html=1;" edge="1" parent="vuKj1LUhj5jE1AkjWa0U-1">
          <mxGeometry width="50" height="50" relative="1" as="geometry">
            <mxPoint x="18" y="190" as="sourcePoint" />
            <mxPoint x="8" y="200" as="targetPoint" />
          </mxGeometry>
        </mxCell>
        <mxCell id="vuKj1LUhj5jE1AkjWa0U-115" value="&lt;font style=&quot;font-size: 8px&quot;&gt;8&lt;/font&gt;" style="text;html=1;strokeColor=none;fillColor=none;align=center;verticalAlign=middle;whiteSpace=wrap;rounded=0;" vertex="1" parent="vuKj1LUhj5jE1AkjWa0U-1">
          <mxGeometry x="10" y="197" width="20" height="15" as="geometry" />
        </mxCell>
        <mxCell id="vuKj1LUhj5jE1AkjWa0U-116" value="" style="endArrow=none;html=1;" edge="1" parent="vuKj1LUhj5jE1AkjWa0U-1">
          <mxGeometry width="50" height="50" relative="1" as="geometry">
            <mxPoint x="20" y="158" as="sourcePoint" />
            <mxPoint x="10" y="168" as="targetPoint" />
          </mxGeometry>
        </mxCell>
        <mxCell id="vuKj1LUhj5jE1AkjWa0U-117" value="&lt;font style=&quot;font-size: 10px&quot;&gt;8&lt;/font&gt;" style="text;html=1;strokeColor=none;fillColor=none;align=center;verticalAlign=middle;whiteSpace=wrap;rounded=0;" vertex="1" parent="vuKj1LUhj5jE1AkjWa0U-1">
          <mxGeometry x="12" y="165" width="20" height="15" as="geometry" />
        </mxCell>
        <mxCell id="vuKj1LUhj5jE1AkjWa0U-118" value="" style="endArrow=none;html=1;" edge="1" parent="vuKj1LUhj5jE1AkjWa0U-1">
          <mxGeometry width="50" height="50" relative="1" as="geometry">
            <mxPoint x="20" y="128" as="sourcePoint" />
            <mxPoint x="10" y="138" as="targetPoint" />
          </mxGeometry>
        </mxCell>
        <mxCell id="vuKj1LUhj5jE1AkjWa0U-119" value="&lt;font style=&quot;font-size: 10px&quot;&gt;8&lt;/font&gt;" style="text;html=1;strokeColor=none;fillColor=none;align=center;verticalAlign=middle;whiteSpace=wrap;rounded=0;" vertex="1" parent="vuKj1LUhj5jE1AkjWa0U-1">
          <mxGeometry x="12" y="135" width="20" height="15" as="geometry" />
        </mxCell>
        <mxCell id="vuKj1LUhj5jE1AkjWa0U-120" value="" style="endArrow=none;html=1;" edge="1" parent="vuKj1LUhj5jE1AkjWa0U-1">
          <mxGeometry width="50" height="50" relative="1" as="geometry">
            <mxPoint x="-10" y="150" as="sourcePoint" />
            <mxPoint x="-20" y="160" as="targetPoint" />
          </mxGeometry>
        </mxCell>
        <mxCell id="vuKj1LUhj5jE1AkjWa0U-121" value="&lt;font style=&quot;font-size: 10px&quot;&gt;8&lt;/font&gt;" style="text;html=1;strokeColor=none;fillColor=none;align=center;verticalAlign=middle;whiteSpace=wrap;rounded=0;" vertex="1" parent="vuKj1LUhj5jE1AkjWa0U-1">
          <mxGeometry x="-20" y="155" width="20" height="15" as="geometry" />
        </mxCell>
        <mxCell id="vuKj1LUhj5jE1AkjWa0U-122" value="" style="endArrow=none;html=1;" edge="1" parent="vuKj1LUhj5jE1AkjWa0U-1">
          <mxGeometry width="50" height="50" relative="1" as="geometry">
            <mxPoint x="164" y="348" as="sourcePoint" />
            <mxPoint x="154" y="358" as="targetPoint" />
          </mxGeometry>
        </mxCell>
        <mxCell id="vuKj1LUhj5jE1AkjWa0U-123" value="&lt;font style=&quot;font-size: 10px&quot;&gt;8&lt;/font&gt;" style="text;html=1;strokeColor=none;fillColor=none;align=center;verticalAlign=middle;whiteSpace=wrap;rounded=0;" vertex="1" parent="vuKj1LUhj5jE1AkjWa0U-1">
          <mxGeometry x="156" y="355" width="20" height="15" as="geometry" />
        </mxCell>
        <mxCell id="vuKj1LUhj5jE1AkjWa0U-124" value="" style="endArrow=none;html=1;" edge="1" parent="vuKj1LUhj5jE1AkjWa0U-1">
          <mxGeometry width="50" height="50" relative="1" as="geometry">
            <mxPoint x="164" y="144" as="sourcePoint" />
            <mxPoint x="154" y="154" as="targetPoint" />
          </mxGeometry>
        </mxCell>
        <mxCell id="vuKj1LUhj5jE1AkjWa0U-125" value="&lt;font style=&quot;font-size: 10px&quot;&gt;8&lt;/font&gt;" style="text;html=1;strokeColor=none;fillColor=none;align=center;verticalAlign=middle;whiteSpace=wrap;rounded=0;" vertex="1" parent="vuKj1LUhj5jE1AkjWa0U-1">
          <mxGeometry x="156" y="152.5" width="20" height="15" as="geometry" />
        </mxCell>
        <mxCell id="vuKj1LUhj5jE1AkjWa0U-195" style="edgeStyle=orthogonalEdgeStyle;rounded=0;orthogonalLoop=1;jettySize=auto;html=1;exitX=0.5;exitY=0;exitDx=0;exitDy=0;entryX=0.75;entryY=1;entryDx=0;entryDy=0;" edge="1" parent="vuKj1LUhj5jE1AkjWa0U-1" source="vuKj1LUhj5jE1AkjWa0U-140" target="vuKj1LUhj5jE1AkjWa0U-146">
          <mxGeometry relative="1" as="geometry" />
        </mxCell>
        <mxCell id="vuKj1LUhj5jE1AkjWa0U-140" value="accumulator" style="rounded=0;whiteSpace=wrap;html=1;rotation=90;" vertex="1" parent="vuKj1LUhj5jE1AkjWa0U-1">
          <mxGeometry x="140" y="230" width="120" height="30" as="geometry" />
        </mxCell>
        <mxCell id="vuKj1LUhj5jE1AkjWa0U-141" style="edgeStyle=orthogonalEdgeStyle;rounded=0;orthogonalLoop=1;jettySize=auto;html=1;exitX=1;exitY=0.5;exitDx=0;exitDy=0;entryX=0.5;entryY=1;entryDx=0;entryDy=0;" edge="1" parent="vuKj1LUhj5jE1AkjWa0U-1" source="vuKj1LUhj5jE1AkjWa0U-142" target="vuKj1LUhj5jE1AkjWa0U-153">
          <mxGeometry relative="1" as="geometry">
            <mxPoint x="-180" y="295" as="targetPoint" />
            <Array as="points">
              <mxPoint x="-170" y="295" />
              <mxPoint x="-170" y="410" />
              <mxPoint x="403" y="410" />
            </Array>
          </mxGeometry>
        </mxCell>
        <mxCell id="vuKj1LUhj5jE1AkjWa0U-142" value="&lt;font face=&quot;Times New Roman&quot;&gt;O&amp;nbsp;&lt;/font&gt;addr&lt;br&gt;calculator" style="rounded=0;whiteSpace=wrap;html=1;" vertex="1" parent="vuKj1LUhj5jE1AkjWa0U-1">
          <mxGeometry x="-250" y="270" width="56" height="50" as="geometry" />
        </mxCell>
        <mxCell id="vuKj1LUhj5jE1AkjWa0U-145" style="edgeStyle=orthogonalEdgeStyle;rounded=0;orthogonalLoop=1;jettySize=auto;html=1;exitX=0.5;exitY=0;exitDx=0;exitDy=0;entryX=0;entryY=0.5;entryDx=0;entryDy=0;" edge="1" parent="vuKj1LUhj5jE1AkjWa0U-1" source="vuKj1LUhj5jE1AkjWa0U-146" target="vuKj1LUhj5jE1AkjWa0U-153">
          <mxGeometry relative="1" as="geometry" />
        </mxCell>
        <mxCell id="vuKj1LUhj5jE1AkjWa0U-146" value="bias adder" style="rounded=0;whiteSpace=wrap;html=1;rotation=90;" vertex="1" parent="vuKj1LUhj5jE1AkjWa0U-1">
          <mxGeometry x="260" y="100" width="107.5" height="25" as="geometry" />
        </mxCell>
        <mxCell id="d_x4Z7epXFwWi5j2pHKv-3" style="edgeStyle=orthogonalEdgeStyle;rounded=0;orthogonalLoop=1;jettySize=auto;html=1;exitX=1;exitY=0.5;exitDx=0;exitDy=0;" edge="1" parent="vuKj1LUhj5jE1AkjWa0U-1" source="vuKj1LUhj5jE1AkjWa0U-148" target="vuKj1LUhj5jE1AkjWa0U-152">
          <mxGeometry relative="1" as="geometry" />
        </mxCell>
        <mxCell id="vuKj1LUhj5jE1AkjWa0U-148" value="&lt;font face=&quot;Times New Roman&quot;&gt;B&amp;nbsp;&lt;/font&gt;addr&lt;br&gt;calculator" style="rounded=0;whiteSpace=wrap;html=1;" vertex="1" parent="vuKj1LUhj5jE1AkjWa0U-1">
          <mxGeometry x="-250" y="60" width="56" height="50" as="geometry" />
        </mxCell>
        <mxCell id="vuKj1LUhj5jE1AkjWa0U-151" style="edgeStyle=orthogonalEdgeStyle;rounded=0;orthogonalLoop=1;jettySize=auto;html=1;exitX=1;exitY=0.5;exitDx=0;exitDy=0;entryX=0.25;entryY=1;entryDx=0;entryDy=0;" edge="1" parent="vuKj1LUhj5jE1AkjWa0U-1" source="vuKj1LUhj5jE1AkjWa0U-152" target="vuKj1LUhj5jE1AkjWa0U-146">
          <mxGeometry relative="1" as="geometry" />
        </mxCell>
        <mxCell id="vuKj1LUhj5jE1AkjWa0U-152" value="Scratchpad&lt;br&gt;buffer (&lt;font face=&quot;Times New Roman&quot;&gt;B&lt;/font&gt;)" style="rounded=0;whiteSpace=wrap;html=1;" vertex="1" parent="vuKj1LUhj5jE1AkjWa0U-1">
          <mxGeometry x="-90" y="65" width="70" height="40" as="geometry" />
        </mxCell>
        <mxCell id="vuKj1LUhj5jE1AkjWa0U-153" value="Scratchpad&lt;br&gt;buffer (&lt;font face=&quot;Times New Roman&quot;&gt;O&lt;/font&gt;)" style="rounded=0;whiteSpace=wrap;html=1;" vertex="1" parent="vuKj1LUhj5jE1AkjWa0U-1">
          <mxGeometry x="367.5" y="92.5" width="70" height="40" as="geometry" />
        </mxCell>
        <mxCell id="vuKj1LUhj5jE1AkjWa0U-157" value="&lt;font style=&quot;font-size: 9px&quot;&gt;k&lt;/font&gt;" style="text;html=1;strokeColor=none;fillColor=none;align=center;verticalAlign=middle;whiteSpace=wrap;rounded=0;" vertex="1" parent="vuKj1LUhj5jE1AkjWa0U-1">
          <mxGeometry x="-274" y="70" width="20" height="15" as="geometry" />
        </mxCell>
        <mxCell id="vuKj1LUhj5jE1AkjWa0U-166" value="&lt;font style=&quot;font-size: 9px&quot;&gt;i&lt;/font&gt;" style="text;html=1;strokeColor=none;fillColor=none;align=center;verticalAlign=middle;whiteSpace=wrap;rounded=0;" vertex="1" parent="vuKj1LUhj5jE1AkjWa0U-1">
          <mxGeometry x="-275" y="115" width="20" height="15" as="geometry" />
        </mxCell>
        <mxCell id="vuKj1LUhj5jE1AkjWa0U-167" value="&lt;font size=&quot;1&quot;&gt;j&lt;/font&gt;" style="text;html=1;strokeColor=none;fillColor=none;align=center;verticalAlign=middle;whiteSpace=wrap;rounded=0;" vertex="1" parent="vuKj1LUhj5jE1AkjWa0U-1">
          <mxGeometry x="-275" y="140.5" width="20" height="15" as="geometry" />
        </mxCell>
        <mxCell id="vuKj1LUhj5jE1AkjWa0U-169" value="&lt;font style=&quot;font-size: 9px&quot;&gt;p&lt;/font&gt;" style="text;html=1;strokeColor=none;fillColor=none;align=center;verticalAlign=middle;whiteSpace=wrap;rounded=0;" vertex="1" parent="vuKj1LUhj5jE1AkjWa0U-1">
          <mxGeometry x="-275" y="130" width="20" height="12" as="geometry" />
        </mxCell>
        <mxCell id="vuKj1LUhj5jE1AkjWa0U-171" value="&lt;font style=&quot;font-size: 9px&quot;&gt;l&lt;/font&gt;" style="text;html=1;strokeColor=none;fillColor=none;align=center;verticalAlign=middle;whiteSpace=wrap;rounded=0;" vertex="1" parent="vuKj1LUhj5jE1AkjWa0U-1">
          <mxGeometry x="-275" y="155" width="20" height="15" as="geometry" />
        </mxCell>
        <mxCell id="vuKj1LUhj5jE1AkjWa0U-172" value="&lt;font style=&quot;font-size: 9px&quot;&gt;m&lt;/font&gt;" style="text;html=1;strokeColor=none;fillColor=none;align=center;verticalAlign=middle;whiteSpace=wrap;rounded=0;" vertex="1" parent="vuKj1LUhj5jE1AkjWa0U-1">
          <mxGeometry x="-275" y="167.5" width="20" height="15" as="geometry" />
        </mxCell>
        <mxCell id="vuKj1LUhj5jE1AkjWa0U-173" value="&lt;font style=&quot;font-size: 9px&quot;&gt;s&lt;/font&gt;" style="text;html=1;strokeColor=none;fillColor=none;align=center;verticalAlign=middle;whiteSpace=wrap;rounded=0;" vertex="1" parent="vuKj1LUhj5jE1AkjWa0U-1">
          <mxGeometry x="-398" y="512" width="20" height="15" as="geometry" />
        </mxCell>
        <mxCell id="vuKj1LUhj5jE1AkjWa0U-174" value="&lt;font style=&quot;font-size: 9px&quot;&gt;k&lt;/font&gt;" style="text;html=1;strokeColor=none;fillColor=none;align=center;verticalAlign=middle;whiteSpace=wrap;rounded=0;" vertex="1" parent="vuKj1LUhj5jE1AkjWa0U-1">
          <mxGeometry x="-275" y="295" width="20" height="15" as="geometry" />
        </mxCell>
        <mxCell id="vuKj1LUhj5jE1AkjWa0U-178" value="&lt;font style=&quot;font-size: 9px&quot;&gt;i&lt;/font&gt;" style="text;html=1;strokeColor=none;fillColor=none;align=center;verticalAlign=middle;whiteSpace=wrap;rounded=0;" vertex="1" parent="vuKj1LUhj5jE1AkjWa0U-1">
          <mxGeometry x="-274" y="267.5" width="20" height="15" as="geometry" />
        </mxCell>
        <mxCell id="vuKj1LUhj5jE1AkjWa0U-179" value="&lt;font style=&quot;font-size: 9px&quot;&gt;j&lt;/font&gt;" style="text;html=1;strokeColor=none;fillColor=none;align=center;verticalAlign=middle;whiteSpace=wrap;rounded=0;" vertex="1" parent="vuKj1LUhj5jE1AkjWa0U-1">
          <mxGeometry x="-274" y="279.5" width="20" height="15" as="geometry" />
        </mxCell>
        <mxCell id="vuKj1LUhj5jE1AkjWa0U-183" value="&lt;font style=&quot;font-size: 9px&quot;&gt;p&lt;/font&gt;" style="text;html=1;strokeColor=none;fillColor=none;align=center;verticalAlign=middle;whiteSpace=wrap;rounded=0;" vertex="1" parent="vuKj1LUhj5jE1AkjWa0U-1">
          <mxGeometry x="-274" y="199" width="20" height="12" as="geometry" />
        </mxCell>
        <mxCell id="vuKj1LUhj5jE1AkjWa0U-184" value="&lt;font style=&quot;font-size: 9px&quot;&gt;k&lt;/font&gt;" style="text;html=1;strokeColor=none;fillColor=none;align=center;verticalAlign=middle;whiteSpace=wrap;rounded=0;" vertex="1" parent="vuKj1LUhj5jE1AkjWa0U-1">
          <mxGeometry x="-274" y="187.5" width="20" height="15" as="geometry" />
        </mxCell>
        <mxCell id="vuKj1LUhj5jE1AkjWa0U-187" value="&lt;font style=&quot;font-size: 9px&quot;&gt;l&lt;/font&gt;" style="text;html=1;strokeColor=none;fillColor=none;align=center;verticalAlign=middle;whiteSpace=wrap;rounded=0;" vertex="1" parent="vuKj1LUhj5jE1AkjWa0U-1">
          <mxGeometry x="-274" y="212" width="20" height="15" as="geometry" />
        </mxCell>
        <mxCell id="vuKj1LUhj5jE1AkjWa0U-188" value="&lt;font style=&quot;font-size: 9px&quot;&gt;m&lt;/font&gt;" style="text;html=1;strokeColor=none;fillColor=none;align=center;verticalAlign=middle;whiteSpace=wrap;rounded=0;" vertex="1" parent="vuKj1LUhj5jE1AkjWa0U-1">
          <mxGeometry x="-274" y="224.5" width="20" height="15" as="geometry" />
        </mxCell>
        <mxCell id="vuKj1LUhj5jE1AkjWa0U-197" value="&lt;font style=&quot;font-size: 10px&quot;&gt;32&lt;/font&gt;" style="text;html=1;strokeColor=none;fillColor=none;align=center;verticalAlign=middle;whiteSpace=wrap;rounded=0;" vertex="1" parent="vuKj1LUhj5jE1AkjWa0U-1">
          <mxGeometry x="156" y="277" width="40" height="20" as="geometry" />
        </mxCell>
        <mxCell id="vuKj1LUhj5jE1AkjWa0U-198" value="&lt;font style=&quot;font-size: 12px&quot;&gt;&lt;b&gt;.......&lt;/b&gt;&lt;/font&gt;" style="text;html=1;strokeColor=none;fillColor=none;align=center;verticalAlign=middle;whiteSpace=wrap;rounded=0;rotation=90;" vertex="1" parent="vuKj1LUhj5jE1AkjWa0U-1">
          <mxGeometry x="160" y="235" width="40" height="20" as="geometry" />
        </mxCell>
        <mxCell id="vuKj1LUhj5jE1AkjWa0U-200" value="" style="endArrow=none;html=1;" edge="1" parent="vuKj1LUhj5jE1AkjWa0U-1">
          <mxGeometry width="50" height="50" relative="1" as="geometry">
            <mxPoint x="225" y="254" as="sourcePoint" />
            <mxPoint x="235" y="238" as="targetPoint" />
          </mxGeometry>
        </mxCell>
        <mxCell id="vuKj1LUhj5jE1AkjWa0U-201" value="&lt;span style=&quot;font-size: 10px&quot;&gt;8b x 32&lt;/span&gt;" style="text;html=1;strokeColor=none;fillColor=none;align=center;verticalAlign=middle;whiteSpace=wrap;rounded=0;" vertex="1" parent="vuKj1LUhj5jE1AkjWa0U-1">
          <mxGeometry x="220" y="252" width="40" height="20" as="geometry" />
        </mxCell>
        <mxCell id="vuKj1LUhj5jE1AkjWa0U-202" value="" style="endArrow=none;html=1;" edge="1" parent="vuKj1LUhj5jE1AkjWa0U-1">
          <mxGeometry width="50" height="50" relative="1" as="geometry">
            <mxPoint x="225" y="92" as="sourcePoint" />
            <mxPoint x="235" y="76" as="targetPoint" />
          </mxGeometry>
        </mxCell>
        <mxCell id="vuKj1LUhj5jE1AkjWa0U-203" value="&lt;span style=&quot;font-size: 10px&quot;&gt;8b x 32&lt;/span&gt;" style="text;html=1;strokeColor=none;fillColor=none;align=center;verticalAlign=middle;whiteSpace=wrap;rounded=0;" vertex="1" parent="vuKj1LUhj5jE1AkjWa0U-1">
          <mxGeometry x="220" y="90" width="40" height="20" as="geometry" />
        </mxCell>
        <mxCell id="vuKj1LUhj5jE1AkjWa0U-204" value="" style="endArrow=none;html=1;" edge="1" parent="vuKj1LUhj5jE1AkjWa0U-1">
          <mxGeometry width="50" height="50" relative="1" as="geometry">
            <mxPoint x="332.5" y="121" as="sourcePoint" />
            <mxPoint x="342.5" y="105" as="targetPoint" />
          </mxGeometry>
        </mxCell>
        <mxCell id="vuKj1LUhj5jE1AkjWa0U-205" value="&lt;span style=&quot;font-size: 10px&quot;&gt;8b x 32&lt;/span&gt;" style="text;html=1;strokeColor=none;fillColor=none;align=center;verticalAlign=middle;whiteSpace=wrap;rounded=0;" vertex="1" parent="vuKj1LUhj5jE1AkjWa0U-1">
          <mxGeometry x="327.5" y="119" width="40" height="20" as="geometry" />
        </mxCell>
      </root>
    </mxGraphModel>
  </diagram>
  <diagram name="Page-3" id="S05gDERglFAt2n84pHa-">
    <mxGraphModel dx="960" dy="509" grid="1" gridSize="10" guides="1" tooltips="1" connect="1" arrows="1" fold="1" page="1" pageScale="1" pageWidth="827" pageHeight="1169" math="0" shadow="0">
      <root>
        <mxCell id="US_HU-pnm6gvkbRBnkS0-0" />
        <mxCell id="US_HU-pnm6gvkbRBnkS0-1" parent="US_HU-pnm6gvkbRBnkS0-0" />
        <mxCell id="US_HU-pnm6gvkbRBnkS0-2" value="" style="rounded=0;whiteSpace=wrap;html=1;fillColor=none;" vertex="1" parent="US_HU-pnm6gvkbRBnkS0-1">
          <mxGeometry x="460" y="90" width="280" height="340" as="geometry" />
        </mxCell>
      </root>
    </mxGraphModel>
  </diagram>
</mxfile>
